<svg width="20" height="20" viewBox="0 0 20 20" fill="none" xmlns="http://www.w3.org/2000/svg">
<path d="M14.8681 10.6359C14.888 9.09202 15.7172 7.63115 17.0325 6.82249C16.2027 5.6374 14.8128 4.88602 13.3668 4.84078C11.8245 4.67889 10.3294 5.76366 9.54343 5.76366C8.7423 5.76366 7.53224 4.85685 6.22922 4.88366C4.53078 4.93853 2.94741 5.90417 2.12108 7.38906C0.344808 10.4644 1.66975 14.9841 3.37127 17.47C4.22258 18.6873 5.21751 20.047 6.51936 19.9988C7.7933 19.9459 8.26909 19.1864 9.80685 19.1864C11.3303 19.1864 11.7767 19.9988 13.105 19.9681C14.472 19.9459 15.3333 18.7454 16.1547 17.5166C16.7664 16.6493 17.237 15.6907 17.5493 14.6763C15.9428 13.9969 14.87 12.3802 14.8681 10.6359Z" fill="white"/>
<path d="M12.3592 3.20595C13.1046 2.31119 13.4718 1.16113 13.3829 0C12.2441 0.1196 11.1923 0.663834 10.4369 1.52426C9.69818 2.36494 9.31376 3.49477 9.38644 4.61152C10.5256 4.62325 11.6454 4.09376 12.3592 3.20595Z" fill="white"/>
</svg>
