<svg width="20" height="20" viewBox="0 0 20 20" fill="none" xmlns="http://www.w3.org/2000/svg">
<path fill-rule="evenodd" clip-rule="evenodd" d="M13.8535 5.84222L5.60461 1.05838C5.29209 0.871207 4.92737 0.763184 4.53707 0.763184C3.7428 0.763184 3.043 1.23781 2.69813 1.90521L2.76724 1.97431L10.2448 9.45025L13.8535 5.84222ZM2.47137 2.77806C2.47093 2.7951 2.4707 2.81217 2.4707 2.82928V17.171C2.4707 17.1881 2.47093 17.2052 2.47137 17.2222L9.6949 10L2.47137 2.77806ZM2.69814 18.095C3.04307 18.7624 3.74297 19.2371 4.53707 19.2371C4.91896 19.2371 5.27751 19.1338 5.585 18.9526L5.60942 18.9383L13.8677 14.1719L10.2448 10.5498L2.76724 18.0259L2.69814 18.095ZM14.565 13.7695L17.912 11.8377C18.5601 11.4879 19 10.8047 19 10.0168C19 9.23465 18.566 8.55483 17.9243 8.20382L17.917 8.19879L14.5496 6.24588L10.7947 10L14.565 13.7695Z" fill="white"/>
</svg>
