<svg width="16" height="16" viewBox="0 0 16 16" fill="none" xmlns="http://www.w3.org/2000/svg">
<g clip-path="url(#clip0_1707_36920)">
<path fill-rule="evenodd" clip-rule="evenodd" d="M15.1529 11.1294C15.713 10.1592 16.0032 9.08695 16 8V7.58824C15.8917 5.87172 15.0637 4.25045 13.6745 3.03484C12.2852 1.81924 10.4323 1.09472 8.47059 1.00002H8C6.75778 0.997189 5.53235 1.25114 4.42354 1.7412C3.09484 2.32225 1.97727 3.21552 1.19599 4.32094C0.414719 5.42636 0.000601589 6.70027 2.68122e-05 8C-0.003212 9.08695 0.28702 10.1592 0.847083 11.1294L0 15L4.42354 14.2588C5.53235 14.7489 6.75778 15.0028 8 15C9.4854 14.9995 10.9413 14.6371 12.2046 13.9535C13.468 13.2699 14.4889 12.292 15.1529 11.1294ZM5 9C5.55228 9 6 8.55228 6 8C6 7.44772 5.55228 7 5 7C4.44772 7 4 7.44772 4 8C4 8.55228 4.44772 9 5 9ZM9 8C9 8.55228 8.55229 9 8 9C7.44772 9 7 8.55228 7 8C7 7.44772 7.44772 7 8 7C8.55229 7 9 7.44772 9 8ZM11 9C11.5523 9 12 8.55228 12 8C12 7.44772 11.5523 7 11 7C10.4477 7 10 7.44772 10 8C10 8.55228 10.4477 9 11 9Z" fill="#FEFEFE"/>
</g>
<defs>
<clipPath id="clip0_1707_36920">
<rect width="16" height="16" fill="white"/>
</clipPath>
</defs>
</svg>
