<svg width="16" height="16" viewBox="0 0 16 16" fill="none" xmlns="http://www.w3.org/2000/svg">
<path d="M14.6666 11.2802V13.2802C14.6674 13.4659 14.6294 13.6497 14.555 13.8198C14.4806 13.9899 14.3715 14.1426 14.2347 14.2681C14.0979 14.3937 13.9364 14.4892 13.7605 14.5487C13.5846 14.6082 13.3982 14.6303 13.2133 14.6136C11.1619 14.3907 9.19131 13.6897 7.45998 12.5669C5.84919 11.5433 4.48353 10.1777 3.45998 8.56689C2.33329 6.8277 1.63214 4.84756 1.41331 2.78689C1.39665 2.60254 1.41856 2.41673 1.47764 2.24131C1.53673 2.06589 1.63169 1.90469 1.75649 1.76797C1.88128 1.63126 2.03318 1.52203 2.2025 1.44724C2.37183 1.37245 2.55487 1.33374 2.73998 1.33356H4.73998C5.06351 1.33038 5.37717 1.44495 5.62248 1.65592C5.8678 1.86689 6.02803 2.15986 6.07331 2.48023C6.15772 3.12027 6.31428 3.74871 6.53998 4.35356C6.62967 4.59218 6.64908 4.8515 6.59591 5.10081C6.54274 5.35012 6.41922 5.57897 6.23998 5.76023L5.39331 6.60689C6.34235 8.27592 7.72428 9.65786 9.39331 10.6069L10.24 9.76023C10.4212 9.58099 10.6501 9.45746 10.8994 9.40429C11.1487 9.35112 11.408 9.37053 11.6466 9.46023C12.2515 9.68593 12.8799 9.84248 13.52 9.9269C13.8438 9.97258 14.1396 10.1357 14.351 10.3852C14.5624 10.6348 14.6748 10.9533 14.6666 11.2802Z" fill="#FEFEFE"/>
</svg>
