<svg width="36" height="36" viewBox="0 0 36 36" fill="none" xmlns="http://www.w3.org/2000/svg">
<g clip-path="url(#clip0_663_15267)">
<path d="M0 0H36V36H0V0Z" fill="white"/>
<path d="M27 0H36V36H27V0ZM0 0H9V36H0V0ZM18.36 25.62L18.18 22.38C18.18 22.2 18.3 22.02 18.54 22.02H18.6L21.84 22.56L21.42 21.36C21.36 21.24 21.42 21.18 21.48 21.06L25.02 18.18L24.24 17.82C24.12 17.76 24.06 17.64 24.12 17.52L24.84 15.36L22.8 15.78C22.68 15.78 22.56 15.72 22.5 15.66L22.08 14.76L20.52 16.44C20.4 16.56 20.28 16.56 20.16 16.44C20.1 16.38 20.1 16.32 20.1 16.2L20.88 12.24L19.68 12.96C19.56 13.02 19.44 12.96 19.32 12.9L18 10.5L16.74 12.96C16.68 13.08 16.56 13.14 16.44 13.08L15.24 12.36L16.02 16.32C16.02 16.44 15.96 16.56 15.84 16.62C15.78 16.62 15.66 16.62 15.6 16.56L14.04 14.88L13.62 15.78C13.56 15.9 13.44 15.96 13.32 15.9L11.28 15.48L12 17.64C12.06 17.76 12 17.88 11.88 17.94L11.1 18.3L14.64 21.18C14.7 21.24 14.76 21.36 14.7 21.48L14.28 22.68L17.52 22.14C17.7 22.08 17.88 22.26 17.94 22.44V22.5L17.76 25.74H18.36V25.62Z" fill="#FF0000"/>
</g>
<defs>
<clipPath id="clip0_663_15267">
<rect width="36" height="36" rx="18" fill="white"/>
</clipPath>
</defs>
</svg>
