<svg width="36" height="36" viewBox="0 0 36 36" fill="none" xmlns="http://www.w3.org/2000/svg">
<g clip-path="url(#clip0_663_22422)">
<path d="M-18 0H54.0014V36.0007H-18V0Z" fill="#000066"/>
<path d="M-18 0V4.02502L45.9517 36.0009H54.0014V31.9759L-9.95026 0.000216H-18V0ZM54.0014 0V4.0248L-9.95026 36.0007H-18V31.9759L45.9517 0H54.0014Z" fill="white"/>
<path d="M12.0006 0V36.0007H24.0008V0H12.0006V0ZM-18 12.0002V24.0005H54.0014V12.0002H-18Z" fill="white"/>
<path d="M-18 14.4003V21.6004H54.0014V14.4003H-18ZM14.4007 0V36.0007H21.6007V0H14.4007ZM-18 36.0007L6.00048 24.0005H11.367L-12.6335 36.0007H-18ZM-18 0L6.00048 12.0002H0.633959L-18 2.68344V0ZM24.6344 12.0002L48.6349 0H54.0014L30.001 12.0002H24.6344ZM54.0014 36.0007L30.001 24.0005H35.3675L54.0014 33.3175V36.0007V36.0007Z" fill="#CC0000"/>
</g>
<defs>
<clipPath id="clip0_663_22422">
<rect width="36" height="36" rx="18" fill="white"/>
</clipPath>
</defs>
</svg>
