<svg width="36" height="36" viewBox="0 0 36 36" fill="none" xmlns="http://www.w3.org/2000/svg">
<g clip-path="url(#clip0_663_29369)">
<path d="M0 0H36V36H0V0Z" fill="#00AFCA"/>
<path d="M18.0011 19.9178C20.6138 19.9178 22.7318 17.7998 22.7318 15.1872C22.7318 12.5745 20.6138 10.4565 18.0011 10.4565C15.3885 10.4565 13.2705 12.5745 13.2705 15.1872C13.2705 17.7998 15.3885 19.9178 18.0011 19.9178Z" fill="#FEC50C"/>
<path d="M18.0016 9.81211C18.2828 9.80859 18.3883 9.63281 18.3883 9.42188C18.3883 9.14062 18.0016 7.80469 18.0016 7.80469C18.0016 7.80469 17.6149 9.14062 17.6149 9.42188C17.6149 9.63281 17.7203 9.81211 18.0016 9.81211ZM23.377 15.1875C23.3805 15.4688 23.5563 15.5742 23.7672 15.5742C24.0485 15.5742 25.3879 15.1875 25.3879 15.1875C25.3879 15.1875 24.0485 14.8008 23.7672 14.8008C23.5563 14.8008 23.377 14.9062 23.377 15.1875ZM18.0016 20.5629C17.7203 20.5664 17.6149 20.7422 17.6149 20.9531C17.6149 21.2344 18.0016 22.5738 18.0016 22.5738C18.0016 22.5738 18.3883 21.2344 18.3883 20.9531C18.3883 20.7422 18.2828 20.5629 18.0016 20.5629ZM12.6262 15.1875C12.6227 14.9062 12.4469 14.8008 12.2359 14.8008C11.9547 14.8008 10.6152 15.1875 10.6152 15.1875C10.6152 15.1875 11.9547 15.5742 12.2359 15.5742C12.4469 15.5742 12.6262 15.4688 12.6262 15.1875ZM20.0589 10.2213C20.3198 10.3254 20.4843 10.2037 20.5652 10.0104C20.6727 9.75023 20.8281 8.36508 20.8281 8.36508C20.8281 8.36508 19.9584 9.45422 19.8508 9.71438C19.7699 9.90773 19.7988 10.1137 20.0589 10.2213ZM22.9677 17.2448C22.8637 17.5057 22.9853 17.6702 23.1787 17.7511C23.4388 17.8587 24.824 18.0141 24.824 18.0141C24.824 18.0141 23.7349 17.1443 23.4747 17.0367C23.2813 16.9559 23.0753 16.9847 22.9677 17.2448ZM15.9442 20.1537C15.6834 20.0496 15.5188 20.1713 15.438 20.3646C15.3304 20.6248 15.175 22.0099 15.175 22.0099C15.175 22.0099 16.0448 20.9208 16.1524 20.6606C16.2332 20.4673 16.2044 20.2613 15.9442 20.1537ZM13.0354 13.1302C13.1395 12.8693 13.0178 12.7048 12.8245 12.6239C12.5643 12.5163 11.1791 12.3609 11.1791 12.3609C11.1791 12.3609 12.2683 13.2307 12.5284 13.3383C12.7218 13.4191 12.9278 13.3903 13.0354 13.1302ZM21.8027 11.3864C22.0038 11.5826 22.2027 11.5334 22.3518 11.3864C22.5508 11.1874 23.2244 9.9668 23.2244 9.9668C23.2244 9.9668 22.0038 10.6404 21.8048 10.8394C21.6578 10.9863 21.6037 11.1874 21.8027 11.3864V11.3864ZM21.8027 18.9886C21.6065 19.1897 21.6557 19.3887 21.8027 19.5377C22.0017 19.7367 23.2223 20.4103 23.2223 20.4103C23.2223 20.4103 22.5487 19.1897 22.3497 18.9907C22.2027 18.8437 22.0017 18.7896 21.8027 18.9886V18.9886ZM14.2005 18.9886C13.9994 18.7924 13.8004 18.8416 13.6513 18.9886C13.4523 19.1876 12.7788 20.4082 12.7788 20.4082C12.7788 20.4082 13.9994 19.7346 14.1984 19.5356C14.3453 19.3887 14.3995 19.1876 14.2005 18.9886ZM14.2005 11.3864C14.3966 11.1853 14.3474 10.9863 14.2005 10.8373C14.0015 10.6383 12.7809 9.96469 12.7809 9.96469C12.7809 9.96469 13.4545 11.1853 13.6534 11.3843C13.8004 11.5313 14.0015 11.5854 14.2005 11.3864ZM22.9677 13.1302C23.0788 13.3889 23.2813 13.4191 23.4761 13.3411C23.7363 13.2335 24.8254 12.3637 24.8254 12.3637C24.8254 12.3637 23.4402 12.5191 23.1801 12.6267C22.9853 12.7048 22.8602 12.8707 22.9677 13.1302V13.1302ZM20.0589 20.1537C19.8002 20.2648 19.7699 20.4673 19.848 20.662C19.9556 20.9222 20.8253 22.0113 20.8253 22.0113C20.8253 22.0113 20.6699 20.6262 20.5624 20.366C20.4843 20.1712 20.3219 20.0461 20.0589 20.1537V20.1537ZM13.0354 17.2448C12.9243 16.9861 12.7218 16.9559 12.527 17.0339C12.2669 17.1415 11.1777 18.0113 11.1777 18.0113C11.1777 18.0113 12.5629 17.8559 12.8231 17.7483C13.0178 17.6702 13.143 17.5078 13.0354 17.2448V17.2448ZM15.9442 10.2213C16.203 10.1102 16.2332 9.90773 16.1552 9.71297C16.0476 9.45281 15.1778 8.36367 15.1778 8.36367C15.1778 8.36367 15.3332 9.74883 15.4408 10.009C15.5188 10.2038 15.6848 10.3289 15.9442 10.2213V10.2213ZM19.0499 9.91406C19.327 9.96539 19.4648 9.81352 19.5056 9.6068C19.5604 9.33117 19.4423 7.9418 19.4423 7.9418C19.4423 7.9418 18.8017 9.18 18.7469 9.45562C18.7047 9.66375 18.775 9.86063 19.0499 9.91406V9.91406ZM23.275 16.2359C23.2237 16.5129 23.3756 16.6507 23.5823 16.6915C23.8579 16.7463 25.2473 16.6282 25.2473 16.6282C25.2473 16.6282 24.0091 15.9877 23.7335 15.9328C23.5253 15.8906 23.3285 15.9609 23.275 16.2359V16.2359ZM16.9532 20.4609C16.6762 20.4096 16.5384 20.5615 16.4976 20.7682C16.4427 21.0438 16.5609 22.4332 16.5609 22.4332C16.5609 22.4332 17.2014 21.195 17.2563 20.9194C17.2984 20.7112 17.2281 20.5144 16.9532 20.4609V20.4609ZM12.7281 14.1391C12.7795 13.8621 12.6276 13.7243 12.4209 13.6835C12.1452 13.6287 10.7559 13.7468 10.7559 13.7468C10.7559 13.7468 11.9941 14.3873 12.2697 14.4422C12.4778 14.4844 12.6747 14.4141 12.7281 14.1391V14.1391ZM20.9877 10.7177C21.224 10.871 21.4096 10.7838 21.5263 10.6088C21.6824 10.3746 22.105 9.0457 22.105 9.0457C22.105 9.0457 21.0398 9.945 20.8844 10.1784C20.7663 10.3542 20.7543 10.5616 20.9877 10.7177V10.7177ZM22.4713 18.1737C22.3181 18.4099 22.4052 18.5955 22.5803 18.7123C22.8145 18.8684 24.1434 19.2909 24.1434 19.2909C24.1434 19.2909 23.2441 18.2257 23.0106 18.0703C22.8349 17.9522 22.6274 17.9402 22.4713 18.1737V18.1737ZM15.0154 19.6573C14.7791 19.504 14.5935 19.5912 14.4768 19.7662C14.3207 20.0004 13.8981 21.3293 13.8981 21.3293C13.8981 21.3293 14.9634 20.43 15.1202 20.1966C15.2369 20.0208 15.2488 19.8134 15.0154 19.6573ZM13.5318 12.2013C13.6851 11.9651 13.5979 11.7795 13.4228 11.6627C13.1887 11.5066 11.8598 11.0841 11.8598 11.0841C11.8598 11.0841 12.7591 12.1493 12.9925 12.3061C13.1683 12.4228 13.3757 12.4348 13.5318 12.2013V12.2013ZM22.4713 12.2013C22.6302 12.4327 22.8349 12.4228 23.0106 12.3061C23.2441 12.1493 24.1434 11.0841 24.1434 11.0841C24.1434 11.0841 22.8145 11.5059 22.5803 11.6627C22.4052 11.7802 22.3145 11.9672 22.4713 12.2013ZM20.9877 19.6573C20.7564 19.8162 20.7663 20.0208 20.883 20.1966C21.0398 20.43 22.105 21.3293 22.105 21.3293C22.105 21.3293 21.6831 20.0004 21.5263 19.7662C21.4089 19.5912 21.2219 19.5005 20.9877 19.6573V19.6573ZM13.5318 18.1737C13.3729 17.9423 13.1683 17.9522 12.9925 18.0689C12.7591 18.2257 11.8598 19.2909 11.8598 19.2909C11.8598 19.2909 13.1887 18.8691 13.4228 18.7123C13.5979 18.5948 13.6886 18.4078 13.5318 18.1737V18.1737ZM15.0154 10.7177C15.2467 10.5588 15.2369 10.3542 15.1202 10.1784C14.9634 9.945 13.8981 9.0457 13.8981 9.0457C13.8981 9.0457 14.32 10.3746 14.4768 10.6088C14.5942 10.7838 14.7813 10.8745 15.0154 10.7177V10.7177ZM23.275 14.1391C23.3334 14.4141 23.5267 14.483 23.7335 14.4422C24.0091 14.3873 25.2473 13.7468 25.2473 13.7468C25.2473 13.7468 23.8579 13.6287 23.5823 13.6835C23.3742 13.7243 23.2188 13.8628 23.275 14.1391V14.1391ZM19.0499 20.4609C18.775 20.5193 18.7061 20.7127 18.7469 20.9194C18.8017 21.195 19.4423 22.4332 19.4423 22.4332C19.4423 22.4332 19.5604 21.0438 19.5056 20.7682C19.4648 20.5601 19.3263 20.4047 19.0499 20.4609V20.4609ZM12.7281 16.2359C12.6698 15.9609 12.4764 15.892 12.2697 15.9328C11.9941 15.9877 10.7559 16.6282 10.7559 16.6282C10.7559 16.6282 12.1452 16.7463 12.4209 16.6915C12.629 16.6507 12.7844 16.5122 12.7281 16.2359V16.2359ZM16.9532 9.91406C17.2281 9.8557 17.297 9.66234 17.2563 9.45562C17.2014 9.18 16.5609 7.9418 16.5609 7.9418C16.5609 7.9418 16.4427 9.33117 16.4976 9.6068C16.5384 9.81492 16.6769 9.97031 16.9532 9.91406V9.91406ZM17.1691 25.4341C17.0434 25.4391 16.9189 25.4601 16.7985 25.4967C16.6333 25.5185 16.4751 25.5762 16.3113 25.6029L16.2459 25.6134L16.1355 25.624C16.1429 25.6539 16.1469 25.6846 16.1474 25.7154C16.148 25.7451 16.144 25.7748 16.1355 25.8033C16.1247 25.8297 16.1087 25.8536 16.0884 25.8736C16.067 25.8994 16.0407 25.9207 16.011 25.9362C15.9823 25.9494 15.9512 25.9568 15.9196 25.958C15.8875 25.9605 15.8553 25.9567 15.8247 25.9467C15.7922 25.9344 15.7624 25.916 15.7368 25.8926C15.7044 25.9008 15.6716 25.9066 15.6384 25.9102C15.6078 25.9137 15.5769 25.9137 15.5463 25.9102C15.5128 25.9013 15.4799 25.8902 15.4478 25.8771C15.4158 25.8644 15.3851 25.8484 15.3564 25.8293C15.2369 25.8996 15.1033 25.9699 15.0302 26.0895C14.9951 26.1461 14.975 26.2107 14.9718 26.2772C14.9683 26.3617 14.9857 26.4457 15.0224 26.5219C15.0351 26.5444 15.0456 26.441 15.0857 26.427C15.1546 26.3718 15.2344 26.3318 15.3198 26.3095C15.3902 26.2737 15.3817 26.3095 15.3529 26.3686C15.3459 26.3974 15.3058 26.5092 15.3599 26.453C15.5976 26.3475 15.8613 26.3264 16.1179 26.306C16.4906 26.2673 16.8646 26.2596 17.238 26.2547C17.5895 26.2596 17.9411 26.2638 18.2927 26.2772C18.4607 26.2814 18.6295 26.3194 18.7947 26.2913C18.8341 26.2807 18.8967 26.2779 18.9199 26.2547C18.8423 26.2201 18.7586 26.2014 18.6738 26.1998H18.0016C17.8152 26.1809 17.6205 26.1788 17.4447 26.1084C17.3976 26.0895 17.3547 26.0452 17.3097 26.093C17.2418 26.1174 17.1708 26.1323 17.0988 26.1373C16.9756 26.1446 16.8524 26.1235 16.7388 26.0754C16.821 25.9615 16.9195 25.8645 17.0095 25.7569C16.9391 25.7449 16.8688 25.7295 16.7936 25.7119C16.9216 25.624 17.0397 25.5248 17.1641 25.4306L17.1691 25.4341Z" fill="#FEC50C"/>
<path d="M22.6395 26.6488C22.3842 26.8013 22.1902 26.5299 21.9771 26.4491C21.8253 26.5313 21.8112 26.8077 21.6685 26.9413C21.499 27.1346 21.2902 26.8871 21.3064 26.6966C21.1025 26.8681 20.9998 27.2591 20.6735 27.2042C20.5175 27.0777 20.4021 26.8105 20.2826 27.1142C20.1856 27.2626 19.9275 27.4742 19.7904 27.2499C19.7489 27.0517 19.6498 26.8189 19.5415 27.1332C19.4677 27.3561 19.2307 27.5192 19.0008 27.4222C18.8757 27.3196 19.1021 26.9392 18.9418 26.9666C18.7027 27.1248 18.5642 27.5171 18.2302 27.4855C18.1008 27.3399 18.3089 27.0938 18.1669 26.9321C17.9989 27.148 17.8153 27.463 17.5228 27.4855C17.3822 27.3723 17.5285 27.046 17.4392 26.9975C17.1411 27.1761 16.8275 27.4946 16.4548 27.3948C16.6011 26.8372 17.2107 26.641 17.7204 26.5974C18.6021 26.4892 19.5303 26.6881 20.3789 26.3703C20.516 26.2867 20.8486 26.1685 20.7305 25.9752C20.6257 25.8219 21.0033 25.8817 21.0399 25.7031C21.0174 25.4774 21.2128 25.5083 21.4041 25.4921C22.2612 25.4549 23.1071 25.6328 23.9621 25.6665C24.026 26.0828 23.5648 26.3746 23.1928 26.2466C23.015 26.2754 22.7485 25.8381 22.8012 26.1559C22.7653 26.3232 22.79 26.5433 22.6381 26.6551L22.6395 26.6488ZM15.3467 25.8022C15.545 25.9836 15.6842 25.7685 15.8691 25.689C16.4914 25.4781 17.0342 25.1012 17.5693 24.7278C17.8934 24.4599 18.1739 24.1119 18.6092 24.0247C19.4585 23.7681 20.3614 23.799 21.2107 23.562C21.8604 22.6733 22.9629 22.3562 23.8861 21.8457C24.0935 21.781 24.1737 21.6102 24.2377 21.4238C24.5904 20.859 25.0703 20.3844 25.639 20.038C25.9076 19.891 26.2282 19.8059 26.5327 19.8734C26.5109 20.2356 26.3028 20.5569 26.0517 20.8072C26.2571 20.803 26.4335 20.6729 26.641 20.6806C26.7113 21.0526 26.3105 21.2474 26.0967 21.4787C26.2163 21.5061 26.6719 21.5406 26.4237 21.6601C26.1066 21.8795 25.7452 22.0306 25.4534 22.2859C25.7227 22.3344 25.7536 22.3913 25.4794 22.4891C25.331 22.5896 25.0456 22.6248 25.0182 22.821C25.2214 22.9461 24.9239 23.0706 24.8072 23.1106C24.5878 23.162 24.3572 23.2576 24.649 23.4242C24.5386 23.5909 24.3017 23.626 24.109 23.6099C24.1674 23.7983 24.2496 24.0099 24.0071 24.0929C23.4579 24.5085 22.8117 24.8101 22.1227 24.8797C22.9854 24.9458 23.8735 24.7855 24.611 24.3172C24.7081 24.2019 25.2185 24.0788 24.9331 23.9818C24.7988 23.9256 24.5112 23.8637 24.4908 23.761C24.8902 23.5149 25.3936 23.6028 25.8225 23.4566C25.8338 23.316 25.4963 23.356 25.3704 23.3244C25.0702 23.2998 25.0892 23.2231 25.3774 23.1943C25.7438 23.0973 26.1586 23.0783 26.4666 22.8427C26.2156 22.726 25.8999 22.8287 25.6327 22.7338C26.0862 22.5348 26.622 22.5151 27.0291 22.217C27.2147 22.0102 26.7914 22.0763 26.6684 22.0799C26.4167 22.1235 26.3007 22.0032 26.5861 21.8985C27.0734 21.5392 27.6914 21.3057 28.0339 20.7847C28.1147 20.668 28.2244 20.3164 27.9635 20.4423C27.6232 20.5555 27.3237 20.9387 26.9363 20.8199C27.7006 20.2278 28.4276 19.5542 28.9493 18.7344C28.9767 18.4981 28.6055 18.4721 28.5092 18.6577C28.017 19.1309 27.574 19.6892 26.9454 19.9859C27.5473 19.4045 28.0451 18.7168 28.4789 18.0038C28.5717 17.7929 28.8221 17.537 28.6864 17.3007C28.4677 17.1193 28.1942 17.2852 28.0803 17.5018C27.6985 18.0003 27.4088 18.5818 26.918 18.9875C27.3476 18.1677 27.7927 17.2951 27.8032 16.3494C27.8032 16.1546 27.7631 15.8677 27.4988 15.9043C27.2878 15.9416 27.3385 16.2559 27.252 16.4141C27.0621 17.0602 26.9707 17.7599 26.5826 18.3252C26.6705 17.8006 26.8238 17.2529 26.7056 16.7227C26.6508 16.4858 26.2683 16.5877 26.3175 16.8226C25.8739 19.1253 24.3192 21.1524 22.2879 22.3238C21.3513 22.8467 20.3264 23.1925 19.2645 23.3441C18.9797 23.406 18.6725 23.3701 18.4003 23.4664C17.7415 23.972 17.3457 24.8171 16.5089 25.0836C16.1356 25.2692 15.6476 25.3072 15.3839 25.6545C15.363 25.6998 15.3535 25.7496 15.3565 25.7994" fill="#FEC50C"/>
<path d="M17.8469 23.4473C17.7238 23.6702 17.6514 23.9268 17.4953 24.1272C17.0193 23.6941 16.3288 23.7053 15.7248 23.6793C15.2263 23.6526 14.6849 23.609 14.2989 23.2511C13.8932 22.9192 13.562 22.4875 13.1085 22.2182C12.6951 22.1057 12.2781 21.9644 11.9455 21.681C11.2347 21.1017 10.8276 20.2417 10.1329 19.642C9.99497 19.5183 9.84885 19.4042 9.69553 19.3003C9.5549 19.3347 9.61889 19.6392 9.44592 19.4838C9.3524 19.417 9.11756 19.4135 9.09436 19.5042C9.3053 19.7854 9.51623 20.1032 9.54858 20.4611C9.40373 20.4759 9.14639 20.4309 9.07467 20.4843C9.26805 20.7746 9.51134 21.0284 9.79326 21.2338C9.65897 21.2556 9.39459 21.2437 9.34256 21.2978C9.62381 21.5249 9.91912 21.7563 10.2833 21.8146C10.3579 21.9131 10.1744 22.1022 10.3283 22.1866C10.4176 22.2231 10.713 22.2843 10.5097 22.3856C10.478 22.4044 10.4534 22.4332 10.4398 22.4675C10.4263 22.5019 10.4246 22.5398 10.435 22.5752C10.4454 22.6106 10.4673 22.6416 10.4973 22.6631C10.5272 22.6847 10.5636 22.6956 10.6005 22.6942C10.7137 22.7519 10.9668 22.7645 10.9865 22.8658C10.8866 22.9678 10.5751 23.088 10.8402 23.1836C11.0887 23.3248 11.3669 23.4057 11.6523 23.4199C11.5117 23.5394 11.3359 23.6069 11.1904 23.7187C11.8422 24.1012 12.565 24.3515 13.2794 24.5948C13.5625 24.6945 13.8522 24.7746 14.1463 24.8345C13.2899 24.7853 12.4588 24.5315 11.6812 24.1842C11.2769 24.007 10.8697 23.8326 10.4556 23.6828C10.637 23.5879 10.8472 23.5654 11.0357 23.4831C10.6447 23.4051 10.2172 23.3791 9.87342 23.1639C9.92615 23.0704 10.1258 23.0655 10.2362 23.0177C10.4472 22.9678 10.573 22.9073 10.2798 22.8897C9.98451 22.8095 9.64701 22.8454 9.38545 22.6668C9.40233 22.5599 9.67443 22.5965 9.78553 22.5515C9.92615 22.5276 10.0808 22.5072 10.1926 22.4109C9.73561 22.2217 9.13795 22.356 8.78006 21.9524C8.69779 21.7985 9.0367 21.9222 9.13162 21.8969C9.37701 21.8969 9.63998 21.9749 9.87342 21.8758C9.20826 21.584 8.49459 21.3098 7.98694 20.7698C7.93069 20.6826 7.76194 20.4449 7.89834 20.4182C8.2935 20.4703 8.57967 20.9013 9.00225 20.8345C9.0585 20.7585 8.75686 20.6348 8.68092 20.5265C8.06498 19.9978 7.46662 19.424 7.0349 18.7314C7.00537 18.5001 7.36889 18.4649 7.46451 18.6435C7.93561 19.0978 8.3617 19.6279 8.94881 19.9373C9.15975 20.0385 8.82928 19.8178 8.78569 19.7376C8.24287 19.1048 7.72678 18.4432 7.34779 17.6985C7.27748 17.565 7.16709 17.3224 7.37029 17.2514C7.5735 17.1501 7.77459 17.2886 7.87725 17.4623C8.27662 17.965 8.56983 18.5627 9.06623 18.9817C8.64436 18.1605 8.19154 17.2942 8.18029 16.3507C8.19014 16.1678 8.20209 15.8908 8.45029 15.8978C8.66123 15.8662 8.62608 16.1334 8.69428 16.2607C8.90029 16.9553 8.98959 17.7063 9.40233 18.3194C9.31092 17.8047 9.17662 17.2739 9.26592 16.7507C9.27081 16.7137 9.28585 16.6787 9.30937 16.6497C9.3329 16.6207 9.364 16.5987 9.39922 16.5863C9.43445 16.5739 9.47243 16.5714 9.50896 16.5792C9.5455 16.587 9.57916 16.6048 9.60623 16.6305C9.70819 16.8808 9.72998 17.1895 9.82279 17.4567C10.3522 19.2679 11.5412 20.8605 13.0902 21.9299C14.3743 22.8087 15.8726 23.3231 17.4257 23.4185C17.5663 23.4304 17.7069 23.4346 17.8476 23.4431" fill="#FEC50C"/>
<path d="M15.8847 25.8488C15.9305 25.8488 15.9677 25.8117 15.9677 25.7658C15.9677 25.72 15.9305 25.6829 15.8847 25.6829C15.8389 25.6829 15.8018 25.72 15.8018 25.7658C15.8018 25.8117 15.8389 25.8488 15.8847 25.8488Z" fill="#FEC50C"/>
<path d="M15.8775 25.7855C15.8961 25.7855 15.9112 25.7704 15.9112 25.7518C15.9112 25.7331 15.8961 25.718 15.8775 25.718C15.8589 25.718 15.8438 25.7331 15.8438 25.7518C15.8438 25.7704 15.8589 25.7855 15.8775 25.7855Z" fill="#FEC50C" stroke="#00AFCA" stroke-width="0.19" stroke-miterlimit="2"/>
</g>
<defs>
<clipPath id="clip0_663_29369">
<rect width="36" height="36" rx="18" fill="white"/>
</clipPath>
</defs>
</svg>
