<svg width="36" height="36" viewBox="0 0 36 36" fill="none" xmlns="http://www.w3.org/2000/svg">
<g clip-path="url(#clip0_663_29821)">
<path d="M0 0H36V36H0V0Z" fill="#E30A17"/>
<path d="M14.8809 27C19.8514 27 23.8809 22.9706 23.8809 18C23.8809 13.0294 19.8514 9 14.8809 9C9.9103 9 5.88086 13.0294 5.88086 18C5.88086 22.9706 9.9103 27 14.8809 27Z" fill="white"/>
<path d="M17.1004 25.2001C21.0768 25.2001 24.3004 21.9765 24.3004 18C24.3004 14.0236 21.0768 10.8 17.1004 10.8C13.1239 10.8 9.90039 14.0236 9.90039 18C9.90039 21.9765 13.1239 25.2001 17.1004 25.2001Z" fill="#E30A17"/>
<path d="M22.0195 18.0002L30.1195 20.6402L25.0795 13.7402V22.2602L30.1195 15.3602L22.0195 18.0002Z" fill="white"/>
</g>
<defs>
<clipPath id="clip0_663_29821">
<rect width="36" height="36" rx="18" fill="white"/>
</clipPath>
</defs>
</svg>
