<svg width="20" height="16" viewBox="0 0 20 16" fill="none" xmlns="http://www.w3.org/2000/svg">
<g clip-path="url(#clip0_228_19076)">
<path d="M17.3333 0H2.66667C1.19391 0 0 1.19391 0 2.66667V13.3333C0 14.8061 1.19391 16 2.66667 16H17.3333C18.8061 16 20 14.8061 20 13.3333V2.66667C20 1.19391 18.8061 0 17.3333 0Z" fill="white"/>
<path d="M10 12C12.2091 12 14 10.2091 14 8C14 5.79086 12.2091 4 10 4C7.79086 4 6 5.79086 6 8C6 10.2091 7.79086 12 10 12Z" fill="#E20311"/>
</g>
<rect x="0.5" y="0.5" width="19" height="15" rx="1.5" stroke="url(#paint0_linear_228_19076)" stroke-opacity="0.2"/>
<defs>
<linearGradient id="paint0_linear_228_19076" x1="10" y1="0" x2="10" y2="16" gradientUnits="userSpaceOnUse">
<stop stop-color="white"/>
<stop offset="0.0001" stop-color="white"/>
<stop offset="1" stop-color="white" stop-opacity="0.05"/>
</linearGradient>
<clipPath id="clip0_228_19076">
<rect width="20" height="16" rx="2" fill="white"/>
</clipPath>
</defs>
</svg>
