<svg width="30" height="16" viewBox="0 0 30 16" fill="none" xmlns="http://www.w3.org/2000/svg">
<path d="M0 2.5C0 1.39543 0.895431 0.5 2 0.5H28C29.1046 0.5 30 1.39543 30 2.5V13.5C30 14.6046 29.1046 15.5 28 15.5H2C0.89543 15.5 0 14.6046 0 13.5V2.5Z" fill="#FE284A"/>
<path d="M5.13793 11.5V4.5H6.43793V10.31H9.40793V11.5H5.13793ZM10.636 11.5V4.5H11.936V11.5H10.636ZM15.4974 11.5L12.8424 4.5H14.3074L16.2274 9.8L18.0874 4.5H19.5224L16.9224 11.5H15.4974ZM20.4309 11.5V4.5H25.0859V5.64H21.7309V7.335H24.6009V8.4H21.7309V10.35H25.1209V11.5H20.4309Z" fill="white"/>
</svg>
