<svg width="47" height="15" viewBox="0 0 47 15" fill="none" xmlns="http://www.w3.org/2000/svg">
<rect width="47" height="15" rx="4" fill="white" fill-opacity="0.1"/>
<path d="M4.96605 11V4H7.59105C8.09439 4 8.54105 4.08833 8.93105 4.265C9.32105 4.43833 9.62605 4.69 9.84605 5.02C10.0694 5.35 10.1811 5.74667 10.1811 6.21C10.1811 6.68 10.0777 7.07833 9.87106 7.405C9.66772 7.73167 9.37105 7.98167 8.98105 8.155C8.59105 8.325 8.11772 8.41 7.56105 8.41H6.26605V11H4.96605ZM6.26605 7.305H7.55605C7.97272 7.305 8.29772 7.21833 8.53105 7.045C8.76439 6.87167 8.88105 6.60167 8.88105 6.235C8.88105 5.86833 8.76105 5.59333 8.52106 5.41C8.28439 5.22333 7.96605 5.13 7.56605 5.13H6.26605V7.305ZM11.3821 11V4H14.0921C14.5887 4 15.0204 4.085 15.3871 4.255C15.7537 4.42167 16.0371 4.66167 16.2371 4.975C16.4371 5.28833 16.5371 5.66167 16.5371 6.095C16.5371 6.44167 16.4654 6.74667 16.3221 7.01C16.1787 7.27333 15.9804 7.49167 15.7271 7.665C15.4771 7.83833 15.1871 7.96 14.8571 8.03L16.8921 11H15.3321L13.5221 8.26H12.6821V11H11.3821ZM12.6821 7.195H13.9021C14.3187 7.195 14.6437 7.10833 14.8771 6.935C15.1104 6.75833 15.2271 6.50167 15.2271 6.165C15.2271 5.815 15.1204 5.54833 14.9071 5.365C14.6937 5.18167 14.3804 5.09 13.9671 5.09H12.6821V7.195ZM21.2682 11.15C20.7382 11.15 20.2465 11.0583 19.7932 10.875C19.3432 10.6883 18.9515 10.43 18.6182 10.1C18.2848 9.77 18.0265 9.38333 17.8432 8.94C17.6598 8.49667 17.5682 8.01667 17.5682 7.5C17.5682 6.98 17.6598 6.49833 17.8432 6.055C18.0265 5.61167 18.2848 5.225 18.6182 4.895C18.9515 4.565 19.3432 4.30833 19.7932 4.125C20.2465 3.94167 20.7382 3.85 21.2682 3.85C21.7948 3.85 22.2832 3.94333 22.7332 4.13C23.1832 4.31667 23.5748 4.57667 23.9082 4.91C24.2415 5.24333 24.5015 5.63167 24.6882 6.075C24.8748 6.515 24.9682 6.99 24.9682 7.5C24.9682 8.01667 24.8748 8.49667 24.6882 8.94C24.5015 9.38333 24.2415 9.77 23.9082 10.1C23.5748 10.43 23.1832 10.6883 22.7332 10.875C22.2832 11.0583 21.7948 11.15 21.2682 11.15ZM21.2682 9.925C21.5982 9.925 21.9048 9.86833 22.1882 9.755C22.4748 9.63833 22.7232 9.475 22.9332 9.265C23.1465 9.05167 23.3115 8.79667 23.4282 8.5C23.5482 8.2 23.6082 7.86667 23.6082 7.5C23.6082 7.01 23.5048 6.58333 23.2982 6.22C23.0915 5.85667 22.8115 5.575 22.4582 5.375C22.1048 5.175 21.7082 5.075 21.2682 5.075C20.9348 5.075 20.6265 5.13167 20.3432 5.245C20.0598 5.35833 19.8115 5.52167 19.5982 5.735C19.3882 5.94833 19.2232 6.20333 19.1032 6.5C18.9865 6.79667 18.9282 7.13 18.9282 7.5C18.9282 7.99 19.0298 8.41667 19.2332 8.78C19.4398 9.14333 19.7198 9.425 20.0732 9.625C20.4265 9.825 20.8248 9.925 21.2682 9.925ZM26.2942 11V4H27.5492L30.3392 8.57L29.8292 8.575L32.5042 4H33.7442V11H32.4792L32.4992 5.7L32.7392 5.785L30.4792 9.555H29.5642L27.2492 5.785L27.4642 5.7L27.4842 11H26.2942ZM38.7779 11.15C38.2479 11.15 37.7563 11.0583 37.3029 10.875C36.8529 10.6883 36.4613 10.43 36.1279 10.1C35.7946 9.77 35.5363 9.38333 35.3529 8.94C35.1696 8.49667 35.0779 8.01667 35.0779 7.5C35.0779 6.98 35.1696 6.49833 35.3529 6.055C35.5363 5.61167 35.7946 5.225 36.1279 4.895C36.4613 4.565 36.8529 4.30833 37.3029 4.125C37.7563 3.94167 38.2479 3.85 38.7779 3.85C39.3046 3.85 39.7929 3.94333 40.2429 4.13C40.6929 4.31667 41.0846 4.57667 41.4179 4.91C41.7513 5.24333 42.0113 5.63167 42.1979 6.075C42.3846 6.515 42.4779 6.99 42.4779 7.5C42.4779 8.01667 42.3846 8.49667 42.1979 8.94C42.0113 9.38333 41.7513 9.77 41.4179 10.1C41.0846 10.43 40.6929 10.6883 40.2429 10.875C39.7929 11.0583 39.3046 11.15 38.7779 11.15ZM38.7779 9.925C39.1079 9.925 39.4146 9.86833 39.6979 9.755C39.9846 9.63833 40.2329 9.475 40.4429 9.265C40.6563 9.05167 40.8213 8.79667 40.9379 8.5C41.0579 8.2 41.1179 7.86667 41.1179 7.5C41.1179 7.01 41.0146 6.58333 40.8079 6.22C40.6013 5.85667 40.3213 5.575 39.9679 5.375C39.6146 5.175 39.2179 5.075 38.7779 5.075C38.4446 5.075 38.1363 5.13167 37.8529 5.245C37.5696 5.35833 37.3213 5.52167 37.1079 5.735C36.8979 5.94833 36.7329 6.20333 36.6129 6.5C36.4963 6.79667 36.4379 7.13 36.4379 7.5C36.4379 7.99 36.5396 8.41667 36.7429 8.78C36.9496 9.14333 37.2296 9.425 37.5829 9.625C37.9363 9.825 38.3346 9.925 38.7779 9.925Z" fill="white"/>
</svg>
