<svg width="16" height="16" viewBox="0 0 16 16" fill="none" xmlns="http://www.w3.org/2000/svg">
<path fill-rule="evenodd" clip-rule="evenodd" d="M6.80443 0.743168C7.02906 0.288097 7.49255 0 8.00004 0C8.50753 0 8.97102 0.288097 9.19565 0.743168L10.9457 4.28862L14.8595 4.86069C15.3616 4.93407 15.7785 5.28608 15.935 5.76876C16.0915 6.25143 15.9605 6.7811 15.597 7.13514L12.7661 9.89249L13.4342 13.7879C13.52 14.2882 13.3143 14.7938 12.9037 15.0921C12.493 15.3904 11.9487 15.4297 11.4994 15.1934L8.00004 13.3531L4.50064 15.1934L4.19034 14.6034L4.50064 15.1934C4.05142 15.4297 3.50703 15.3904 3.09639 15.0921C2.68576 14.7938 2.4801 14.2882 2.56589 13.7879L3.23401 9.89249L0.403062 7.13514C0.0395708 6.7811 -0.0914594 6.25143 0.0650441 5.76876C0.221548 5.28608 0.638454 4.93407 1.14053 4.86069L5.05436 4.28862L6.80443 0.743168L7.40223 1.03825L6.80443 0.743168ZM8.00004 1.33333L6.095 5.19273C5.99798 5.38929 5.81052 5.5256 5.59362 5.5573L1.33337 6.18L4.41551 9.18201C4.57276 9.33517 4.64454 9.55592 4.60743 9.77227L3.88004 14.0133L7.68974 12.0099C7.88399 11.9077 8.11609 11.9077 8.31034 12.0099L12.12 14.0133L11.3926 9.77227C11.3555 9.55592 11.4273 9.33517 11.5846 9.182L14.6667 6.18L10.4065 5.5573C10.1896 5.5256 10.0021 5.38929 9.90507 5.19273L8.00004 1.33333Z" fill="#FFDE26"/>
</svg>
