<svg width="32" height="32" viewBox="0 0 32 32" fill="none" xmlns="http://www.w3.org/2000/svg">
<path d="M20.7808 11.7624C21.2427 11.8211 21.6482 11.4905 21.7047 11.0425L21.8556 9.82538C21.8831 9.60541 21.8228 9.3881 21.6876 9.21346C21.5524 9.03882 21.3569 8.92684 21.1377 8.89884C21.0774 8.89084 21.0144 8.89217 20.9475 8.89884C20.8543 5.8766 18.9764 4.0022 16.0302 4.0022C13.0841 4.0022 11.2061 5.87527 11.113 8.89884C11.046 8.89084 10.9844 8.89084 10.9227 8.89884C10.4699 8.95617 10.1484 9.37077 10.2049 9.82538L10.3571 11.0425C10.4135 11.4918 10.8243 11.8198 11.2809 11.7624C11.3558 11.7531 11.4279 11.7331 11.4975 11.7038C12.2757 14.1928 14.0893 15.8579 16.0315 15.8579C17.9738 15.8579 19.7874 14.1914 20.5656 11.7038C20.6351 11.7331 20.7073 11.7531 20.7808 11.7624Z" fill="url(#paint0_linear_663_35912)"/>
<path d="M20.7808 11.7624C21.2427 11.8211 21.6482 11.4905 21.7047 11.0425L21.8556 9.82538C21.8831 9.60541 21.8228 9.3881 21.6876 9.21346C21.5524 9.03882 21.3569 8.92684 21.1377 8.89884C21.0774 8.89084 21.0144 8.89217 20.9475 8.89884C20.8543 5.8766 18.9764 4.0022 16.0302 4.0022C13.0841 4.0022 11.2061 5.87527 11.113 8.89884C11.046 8.89084 10.9844 8.89084 10.9227 8.89884C10.4699 8.95617 10.1484 9.37077 10.2049 9.82538L10.3571 11.0425C10.4135 11.4918 10.8243 11.8198 11.2809 11.7624C11.3558 11.7531 11.4279 11.7331 11.4975 11.7038C12.2757 14.1928 14.0893 15.8579 16.0315 15.8579C17.9738 15.8579 19.7874 14.1914 20.5656 11.7038C20.6351 11.7331 20.7073 11.7531 20.7808 11.7624Z" fill="url(#paint1_linear_663_35912)" fill-opacity="0.2"/>
<path d="M18.6871 17.3893C18.4837 17.2827 18.2409 17.2987 18.0532 17.432L16.3223 18.6518C16.1307 18.5838 15.9312 18.5838 15.7383 18.6518L14.0074 17.4333C13.8197 17.3013 13.5769 17.2854 13.3735 17.3907C13.1701 17.496 13.0441 17.7053 13.0441 17.9346V21.0488C13.0441 21.2781 13.1701 21.4874 13.3735 21.5927C13.573 21.6967 13.8236 21.6794 14.0074 21.5501L15.7383 20.3303C15.9286 20.3982 16.1307 20.3982 16.3223 20.3303L18.0532 21.5501C18.1569 21.6234 18.2776 21.6621 18.4049 21.6621C18.5034 21.6621 18.6005 21.6381 18.6871 21.5927C18.8905 21.4874 19.0165 21.2781 19.0165 21.0488V17.9346C19.0165 17.7053 18.8905 17.496 18.6871 17.3907V17.3893Z" fill="url(#paint2_linear_663_35912)"/>
<path d="M18.6871 17.3893C18.4837 17.2827 18.2409 17.2987 18.0532 17.432L16.3223 18.6518C16.1307 18.5838 15.9312 18.5838 15.7383 18.6518L14.0074 17.4333C13.8197 17.3013 13.5769 17.2854 13.3735 17.3907C13.1701 17.496 13.0441 17.7053 13.0441 17.9346V21.0488C13.0441 21.2781 13.1701 21.4874 13.3735 21.5927C13.573 21.6967 13.8236 21.6794 14.0074 21.5501L15.7383 20.3303C15.9286 20.3982 16.1307 20.3982 16.3223 20.3303L18.0532 21.5501C18.1569 21.6234 18.2776 21.6621 18.4049 21.6621C18.5034 21.6621 18.6005 21.6381 18.6871 21.5927C18.8905 21.4874 19.0165 21.2781 19.0165 21.0488V17.9346C19.0165 17.7053 18.8905 17.496 18.6871 17.3907V17.3893Z" fill="url(#paint3_linear_663_35912)" fill-opacity="0.2"/>
<path d="M22.8523 16.8421C23.032 16.9128 23.2026 16.9794 23.3627 17.0408L23.3667 17.0394C24.9296 17.6327 26.6973 18.6659 26.4821 21.4108C26.4814 21.4169 26.4806 21.4234 26.4799 21.43C26.4793 21.4351 26.4787 21.4403 26.4782 21.4455L25.7971 27.2073C25.7393 27.6979 25.2958 28.0499 24.8063 27.9912H7.19371C6.70422 28.0499 6.26066 27.6979 6.20291 27.2073L5.52182 21.4455C5.52143 21.4423 5.52093 21.439 5.52041 21.4357C5.51918 21.4277 5.51789 21.4192 5.51789 21.4108C5.30267 18.6659 7.07036 17.6327 8.63332 17.0394C8.79342 16.9781 8.96403 16.9114 9.14381 16.8408C10.1215 16.4568 11.338 15.9796 12.5138 15.8303C12.7816 15.7956 13.0506 15.8863 13.2448 16.0742C13.3734 16.1995 13.4364 16.3662 13.4679 16.5395C13.3104 16.5608 13.1542 16.6008 13.0073 16.6781C12.5388 16.9221 12.2474 17.4034 12.2474 17.9326V21.0469C12.2474 21.5761 12.5388 22.0561 13.006 22.3C13.317 22.4627 13.6792 22.488 14.0138 22.4013L15.998 26.4621L17.9849 22.396C18.1187 22.4387 18.2605 22.4613 18.4035 22.4613C18.6292 22.4613 18.8576 22.4053 19.0531 22.3C19.5216 22.0561 19.8129 21.5761 19.8129 21.0469V17.9326C19.8129 17.4034 19.5229 16.9234 19.0544 16.6781C18.8877 16.5915 18.708 16.5528 18.5282 16.5355C18.561 16.3635 18.6227 16.1995 18.7513 16.0756C18.9455 15.8876 19.2145 15.7983 19.4822 15.8316C20.6581 15.9809 21.8746 16.4582 22.8523 16.8421Z" fill="url(#paint4_linear_663_35912)"/>
<path d="M22.8523 16.8421C23.032 16.9128 23.2026 16.9794 23.3627 17.0408L23.3667 17.0394C24.9296 17.6327 26.6973 18.6659 26.4821 21.4108C26.4814 21.4169 26.4806 21.4234 26.4799 21.43C26.4793 21.4351 26.4787 21.4403 26.4782 21.4455L25.7971 27.2073C25.7393 27.6979 25.2958 28.0499 24.8063 27.9912H7.19371C6.70422 28.0499 6.26066 27.6979 6.20291 27.2073L5.52182 21.4455C5.52143 21.4423 5.52093 21.439 5.52041 21.4357C5.51918 21.4277 5.51789 21.4192 5.51789 21.4108C5.30267 18.6659 7.07036 17.6327 8.63332 17.0394C8.79342 16.9781 8.96403 16.9114 9.14381 16.8408C10.1215 16.4568 11.338 15.9796 12.5138 15.8303C12.7816 15.7956 13.0506 15.8863 13.2448 16.0742C13.3734 16.1995 13.4364 16.3662 13.4679 16.5395C13.3104 16.5608 13.1542 16.6008 13.0073 16.6781C12.5388 16.9221 12.2474 17.4034 12.2474 17.9326V21.0469C12.2474 21.5761 12.5388 22.0561 13.006 22.3C13.317 22.4627 13.6792 22.488 14.0138 22.4013L15.998 26.4621L17.9849 22.396C18.1187 22.4387 18.2605 22.4613 18.4035 22.4613C18.6292 22.4613 18.8576 22.4053 19.0531 22.3C19.5216 22.0561 19.8129 21.5761 19.8129 21.0469V17.9326C19.8129 17.4034 19.5229 16.9234 19.0544 16.6781C18.8877 16.5915 18.708 16.5528 18.5282 16.5355C18.561 16.3635 18.6227 16.1995 18.7513 16.0756C18.9455 15.8876 19.2145 15.7983 19.4822 15.8316C20.6581 15.9809 21.8746 16.4582 22.8523 16.8421Z" fill="url(#paint5_linear_663_35912)" fill-opacity="0.2"/>
<defs>
<linearGradient id="paint0_linear_663_35912" x1="16" y1="4.0022" x2="16" y2="27.9976" gradientUnits="userSpaceOnUse">
<stop stop-color="#FFA95A"/>
<stop offset="1" stop-color="#FF7A00"/>
</linearGradient>
<linearGradient id="paint1_linear_663_35912" x1="16" y1="4.0022" x2="16" y2="27.9976" gradientUnits="userSpaceOnUse">
<stop stop-color="white"/>
<stop offset="1" stop-color="white" stop-opacity="0"/>
</linearGradient>
<linearGradient id="paint2_linear_663_35912" x1="16" y1="4.0022" x2="16" y2="27.9976" gradientUnits="userSpaceOnUse">
<stop stop-color="#FFA95A"/>
<stop offset="1" stop-color="#FF7A00"/>
</linearGradient>
<linearGradient id="paint3_linear_663_35912" x1="16" y1="4.0022" x2="16" y2="27.9976" gradientUnits="userSpaceOnUse">
<stop stop-color="white"/>
<stop offset="1" stop-color="white" stop-opacity="0"/>
</linearGradient>
<linearGradient id="paint4_linear_663_35912" x1="16" y1="4.0022" x2="16" y2="27.9976" gradientUnits="userSpaceOnUse">
<stop stop-color="#FFA95A"/>
<stop offset="1" stop-color="#FF7A00"/>
</linearGradient>
<linearGradient id="paint5_linear_663_35912" x1="16" y1="4.0022" x2="16" y2="27.9976" gradientUnits="userSpaceOnUse">
<stop stop-color="white"/>
<stop offset="1" stop-color="white" stop-opacity="0"/>
</linearGradient>
</defs>
</svg>
