<svg width="32" height="32" viewBox="0 0 32 32" fill="none" xmlns="http://www.w3.org/2000/svg">
<path d="M19.5354 26.3755C19.4685 26.4535 19.3711 26.5 19.2707 26.5H10.5006C10.3362 26.5 10.1923 26.3815 10.153 26.212C8.84838 20.6226 13.7265 15.1517 17.3218 12.837L17.8846 12.4755L17.2956 12.165C16.8069 11.907 16.1699 11.7704 15.5067 11.7704C15.2783 11.7704 15.0456 11.7869 14.8173 11.82C14.2137 11.9085 12.2037 12.357 11.7092 14.4271C11.6685 14.5966 11.5259 14.7137 11.3616 14.7137H7.46814C7.27034 14.7137 7.11035 14.5426 7.11035 14.3341V6.31906C7.11035 6.10904 7.27034 5.93953 7.46814 5.93953H10.9267C11.0824 5.93953 11.2205 6.04604 11.2671 6.20355L11.4925 6.9491L11.8677 6.75709C13.5869 5.87653 15.0776 5.5 16.8535 5.5C18.5042 5.5 19.707 5.82702 21.4465 6.74809L21.8246 6.9491L22.0501 6.20505C22.0981 6.04754 22.2348 5.94103 22.3919 5.94103H25.6905C25.8883 5.94103 26.0483 6.11204 26.0483 6.32056V12.8775C26.0483 12.993 25.9974 13.1055 25.9101 13.1775C21.5701 16.7583 19.2227 21.5841 19.6285 26.0845C19.6387 26.191 19.6052 26.2975 19.5369 26.377L19.5354 26.3755Z" fill="url(#paint0_linear_663_35911)"/>
<path d="M19.5354 26.3755C19.4685 26.4535 19.3711 26.5 19.2707 26.5H10.5006C10.3362 26.5 10.1923 26.3815 10.153 26.212C8.84838 20.6226 13.7265 15.1517 17.3218 12.837L17.8846 12.4755L17.2956 12.165C16.8069 11.907 16.1699 11.7704 15.5067 11.7704C15.2783 11.7704 15.0456 11.7869 14.8173 11.82C14.2137 11.9085 12.2037 12.357 11.7092 14.4271C11.6685 14.5966 11.5259 14.7137 11.3616 14.7137H7.46814C7.27034 14.7137 7.11035 14.5426 7.11035 14.3341V6.31906C7.11035 6.10904 7.27034 5.93953 7.46814 5.93953H10.9267C11.0824 5.93953 11.2205 6.04604 11.2671 6.20355L11.4925 6.9491L11.8677 6.75709C13.5869 5.87653 15.0776 5.5 16.8535 5.5C18.5042 5.5 19.707 5.82702 21.4465 6.74809L21.8246 6.9491L22.0501 6.20505C22.0981 6.04754 22.2348 5.94103 22.3919 5.94103H25.6905C25.8883 5.94103 26.0483 6.11204 26.0483 6.32056V12.8775C26.0483 12.993 25.9974 13.1055 25.9101 13.1775C21.5701 16.7583 19.2227 21.5841 19.6285 26.0845C19.6387 26.191 19.6052 26.2975 19.5369 26.377L19.5354 26.3755Z" fill="url(#paint1_linear_663_35911)" fill-opacity="0.2"/>
<path d="M0 11.631V16.9714H2.55977C2.95391 15.4113 4.44905 15.0752 4.90137 15.0092C5.08754 14.9837 5.27516 14.9732 5.45987 14.9762C5.40169 14.7722 5.36969 14.5562 5.36969 14.3327V11.397C4.59885 11.5035 3.87019 11.7435 3.06736 12.1545L2.51177 12.4395L2.26743 11.631H0Z" fill="url(#paint2_linear_663_35911)"/>
<path d="M0 11.631V16.9714H2.55977C2.95391 15.4113 4.44905 15.0752 4.90137 15.0092C5.08754 14.9837 5.27516 14.9732 5.45987 14.9762C5.40169 14.7722 5.36969 14.5562 5.36969 14.3327V11.397C4.59885 11.5035 3.87019 11.7435 3.06736 12.1545L2.51177 12.4395L2.26743 11.631H0Z" fill="url(#paint3_linear_663_35911)" fill-opacity="0.2"/>
<path d="M2.04902 24.9726H7.91321C7.76196 23.156 8.24918 21.2719 9.26436 19.5242C9.74723 18.4232 10.3435 17.4226 10.9544 16.557H7.46816C7.17292 16.557 6.89222 16.491 6.63624 16.374C4.29463 17.9461 1.25055 21.4324 2.04902 24.9726Z" fill="url(#paint4_linear_663_35911)"/>
<path d="M2.04902 24.9726H7.91321C7.76196 23.156 8.24918 21.2719 9.26436 19.5242C9.74723 18.4232 10.3435 17.4226 10.9544 16.557H7.46816C7.17292 16.557 6.89222 16.491 6.63624 16.374C4.29463 17.9461 1.25055 21.4324 2.04902 24.9726Z" fill="url(#paint5_linear_663_35911)" fill-opacity="0.2"/>
<path d="M27.6352 24.9404C27.3749 21.8022 29.0009 18.4554 31.997 15.9757H31.9999V11.5969H29.8416L29.5958 12.41L29.0358 12.113C28.5762 11.87 28.1748 11.6929 27.7879 11.5654V12.8765C27.7879 13.5666 27.4927 14.2071 26.9793 14.6316C26.7611 14.8117 26.5517 14.9947 26.3452 15.1807C26.3584 15.1866 26.3718 15.1924 26.3851 15.1981C26.4157 15.2114 26.4462 15.2246 26.4746 15.2392L27.3458 15.6997L26.5139 16.2353C24.1548 17.7549 20.9536 21.3206 21.7696 24.9404H27.6352Z" fill="url(#paint6_linear_663_35911)"/>
<path d="M27.6352 24.9404C27.3749 21.8022 29.0009 18.4554 31.997 15.9757H31.9999V11.5969H29.8416L29.5958 12.41L29.0358 12.113C28.5762 11.87 28.1748 11.6929 27.7879 11.5654V12.8765C27.7879 13.5666 27.4927 14.2071 26.9793 14.6316C26.7611 14.8117 26.5517 14.9947 26.3452 15.1807C26.3584 15.1866 26.3718 15.1924 26.3851 15.1981C26.4157 15.2114 26.4462 15.2246 26.4746 15.2392L27.3458 15.6997L26.5139 16.2353C24.1548 17.7549 20.9536 21.3206 21.7696 24.9404H27.6352Z" fill="url(#paint7_linear_663_35911)" fill-opacity="0.2"/>
<defs>
<linearGradient id="paint0_linear_663_35911" x1="16" y1="5.5" x2="16" y2="26.5" gradientUnits="userSpaceOnUse">
<stop stop-color="#91E4FF"/>
<stop offset="1" stop-color="#05C3FF"/>
</linearGradient>
<linearGradient id="paint1_linear_663_35911" x1="16" y1="5.5" x2="16" y2="26.5" gradientUnits="userSpaceOnUse">
<stop stop-color="white"/>
<stop offset="1" stop-color="white" stop-opacity="0"/>
</linearGradient>
<linearGradient id="paint2_linear_663_35911" x1="16" y1="5.5" x2="16" y2="26.5" gradientUnits="userSpaceOnUse">
<stop stop-color="#91E4FF"/>
<stop offset="1" stop-color="#05C3FF"/>
</linearGradient>
<linearGradient id="paint3_linear_663_35911" x1="16" y1="5.5" x2="16" y2="26.5" gradientUnits="userSpaceOnUse">
<stop stop-color="white"/>
<stop offset="1" stop-color="white" stop-opacity="0"/>
</linearGradient>
<linearGradient id="paint4_linear_663_35911" x1="16" y1="5.5" x2="16" y2="26.5" gradientUnits="userSpaceOnUse">
<stop stop-color="#91E4FF"/>
<stop offset="1" stop-color="#05C3FF"/>
</linearGradient>
<linearGradient id="paint5_linear_663_35911" x1="16" y1="5.5" x2="16" y2="26.5" gradientUnits="userSpaceOnUse">
<stop stop-color="white"/>
<stop offset="1" stop-color="white" stop-opacity="0"/>
</linearGradient>
<linearGradient id="paint6_linear_663_35911" x1="16" y1="5.5" x2="16" y2="26.5" gradientUnits="userSpaceOnUse">
<stop stop-color="#91E4FF"/>
<stop offset="1" stop-color="#05C3FF"/>
</linearGradient>
<linearGradient id="paint7_linear_663_35911" x1="16" y1="5.5" x2="16" y2="26.5" gradientUnits="userSpaceOnUse">
<stop stop-color="white"/>
<stop offset="1" stop-color="white" stop-opacity="0"/>
</linearGradient>
</defs>
</svg>
