<svg width="33" height="32" viewBox="0 0 33 32" fill="none" xmlns="http://www.w3.org/2000/svg">
<path fill-rule="evenodd" clip-rule="evenodd" d="M9.83046 13.2843C9.836 13.8157 9.88764 14.3461 9.95773 14.8755C12.1443 14.4586 13.7785 11.6332 14.1502 10.7356C14.6426 9.54109 17.5329 6.17972 22.0066 5.34399C20.3558 4.49074 18.4874 4 16.5009 4C15.3269 4 14.1944 4.17619 13.121 4.49074C12.6718 4.78868 9.75023 6.97117 9.83046 13.2843ZM8.33646 15.8662C8.57531 15.9345 8.80956 15.9723 9.03827 15.9954L9.03735 15.9963C9.29742 17.2905 9.7281 18.5561 10.2823 19.7534C7.36812 19.6861 5.58362 18.8439 4.72595 18.3089C4.58116 17.5617 4.5 16.7896 4.5 16C4.5 14.621 4.74439 13.3019 5.17322 12.0686C5.72195 13.705 6.6783 15.3921 8.33646 15.8662ZM28.1536 13.1854C25.2004 16.7614 18.3764 19.9416 13.381 20.6454C12.907 20.7127 12.4542 20.7579 12.0171 20.7911C12.4782 21.5798 12.9974 22.315 13.5609 22.9875C14.3623 22.8187 15.2753 22.7449 16.2999 22.7725C17.6619 22.8061 18.8576 22.8599 19.9114 22.9073L20.0543 22.9137C23.6297 23.076 25.4548 23.1498 26.7533 22.2089C27.8535 20.3954 28.5 18.2757 28.5 15.9991C28.5 15.0283 28.372 14.0898 28.1536 13.1854ZM10.1366 15.9511C12.7576 15.4687 14.6251 12.42 15.1499 11.1489C15.6128 10.03 18.777 6.54224 23.5034 6.26735C25.441 7.66485 26.9405 9.62318 27.7705 11.9081C25.5037 15.2621 18.6101 18.8144 13.2316 19.5726C12.5999 19.6621 12.0134 19.7082 11.4517 19.735C10.8643 18.5395 10.4105 17.2628 10.1366 15.9511ZM8.63434 14.8239C8.68586 14.8384 8.735 14.8462 8.78437 14.854C8.8101 14.8581 8.83591 14.8622 8.86213 14.8672C8.79757 14.3451 8.75238 13.8212 8.74593 13.2973C8.69613 9.43501 9.72164 6.97117 10.7315 5.47775C8.64909 6.62249 6.94943 8.36959 5.85198 10.4811C6.25961 12.2641 7.09975 14.3857 8.63434 14.8239ZM16.2731 23.8564C17.6897 23.8915 18.9236 23.9468 20.0072 23.9966C22.4539 24.1064 24.1757 24.1747 25.5286 23.8868C24.2753 25.3203 22.6909 26.4503 20.8889 27.1597C20.8049 26.9696 20.6168 26.8368 20.3955 26.8368C18.3205 26.8368 16.2215 25.7142 14.4416 23.9468C15.0005 23.8749 15.6073 23.8407 16.2731 23.8564ZM13.2289 24.1959C12.3841 24.4514 11.7266 24.8508 11.2737 25.3932C10.974 25.7529 10.8016 26.1358 10.6955 26.5001C12.4155 27.453 14.3946 28 16.5009 28C17.3392 28 18.1563 27.9133 18.9448 27.7491C16.9067 27.3156 14.9092 26.0223 13.2289 24.1959ZM10.8357 20.84C11.3189 21.7191 11.864 22.5539 12.4699 23.3149L12.4708 23.3159C11.6297 23.6387 10.9473 24.0953 10.4428 24.6995C10.1136 25.0952 9.89041 25.5113 9.74193 25.9144C7.58761 24.4422 5.94236 22.2855 5.11051 19.7589C6.29188 20.3059 8.09484 20.8483 10.6134 20.8483C10.6513 20.8483 10.6916 20.8462 10.7318 20.8441C10.767 20.8423 10.8021 20.8405 10.8357 20.84Z" fill="url(#paint0_linear_228_8814)"/>
<defs>
<linearGradient id="paint0_linear_228_8814" x1="16.5" y1="4" x2="16.5" y2="28" gradientUnits="userSpaceOnUse">
<stop stop-color="#C6A3FF"/>
<stop offset="1" stop-color="#9746FF"/>
</linearGradient>
</defs>
</svg>
