<svg width="32" height="32" viewBox="0 0 32 32" fill="none" xmlns="http://www.w3.org/2000/svg">
<path d="M17.4859 14.6286L20.0002 16L17.4859 17.3714L16.1145 20L14.743 17.4857L12.0002 16L14.6288 14.6286L16.1145 12L17.4859 14.6286Z" fill="url(#paint0_linear_663_35913)"/>
<path d="M17.4859 14.6286L20.0002 16L17.4859 17.3714L16.1145 20L14.743 17.4857L12.0002 16L14.6288 14.6286L16.1145 12L17.4859 14.6286Z" fill="url(#paint1_linear_663_35913)" fill-opacity="0.2"/>
<path fill-rule="evenodd" clip-rule="evenodd" d="M4 16C4 9.29412 9.29412 4 16 4C22.7059 4 28 9.29412 28 16C28 22.5882 22.7059 28 16 28C9.41176 28 4 22.5882 4 16ZM6.35294 16C6.35294 21.2941 10.7059 25.6471 16 25.6471C21.2941 25.6471 25.6471 21.2941 25.6471 16C25.6471 10.7059 21.2941 6.35294 16 6.35294C10.7059 6.35294 6.35294 10.7059 6.35294 16Z" fill="url(#paint2_linear_663_35913)"/>
<path fill-rule="evenodd" clip-rule="evenodd" d="M4 16C4 9.29412 9.29412 4 16 4C22.7059 4 28 9.29412 28 16C28 22.5882 22.7059 28 16 28C9.41176 28 4 22.5882 4 16ZM6.35294 16C6.35294 21.2941 10.7059 25.6471 16 25.6471C21.2941 25.6471 25.6471 21.2941 25.6471 16C25.6471 10.7059 21.2941 6.35294 16 6.35294C10.7059 6.35294 6.35294 10.7059 6.35294 16Z" fill="url(#paint3_linear_663_35913)" fill-opacity="0.2"/>
<defs>
<linearGradient id="paint0_linear_663_35913" x1="16" y1="4" x2="16" y2="28" gradientUnits="userSpaceOnUse">
<stop stop-color="#A9FF54"/>
<stop offset="1" stop-color="#80FF00"/>
</linearGradient>
<linearGradient id="paint1_linear_663_35913" x1="16" y1="4" x2="16" y2="28" gradientUnits="userSpaceOnUse">
<stop stop-color="white"/>
<stop offset="1" stop-color="white" stop-opacity="0"/>
</linearGradient>
<linearGradient id="paint2_linear_663_35913" x1="16" y1="4" x2="16" y2="28" gradientUnits="userSpaceOnUse">
<stop stop-color="#A9FF54"/>
<stop offset="1" stop-color="#80FF00"/>
</linearGradient>
<linearGradient id="paint3_linear_663_35913" x1="16" y1="4" x2="16" y2="28" gradientUnits="userSpaceOnUse">
<stop stop-color="white"/>
<stop offset="1" stop-color="white" stop-opacity="0"/>
</linearGradient>
</defs>
</svg>
