<svg width="32" height="32" viewBox="0 0 32 32" fill="none" xmlns="http://www.w3.org/2000/svg">
<path d="M27.6322 6.94506C27.4157 6.72855 27.1314 6.60986 26.8353 6.60986H24.2985L24.3858 5.31993L24.3885 5.23776C24.3885 4.91039 24.2685 4.60258 24.052 4.36911C23.8328 4.13173 23.5381 4 23.225 4H8.77626L8.6954 4.00261C8.05761 4.04956 7.57241 4.6404 7.61285 5.32123L7.69893 6.60855H5.16342C4.52302 6.61116 4 7.16678 4 7.84892V10.4575C4 13.5056 5.97728 16.135 8.72409 16.7702C9.74795 19.5926 12.0656 21.5869 14.8346 22.0382V25.5219H12.3878C11.7461 25.5219 11.2231 26.0788 11.2231 26.7609C11.2231 27.4431 11.7448 28 12.3878 28H19.6109C20.2526 28 20.7756 27.4431 20.7756 26.7609C20.7756 26.0788 20.2539 25.5219 19.6109 25.5219H17.1641V22.0368C19.9344 21.5869 22.2521 19.5939 23.2759 16.7728C26.0214 16.135 28 13.5056 28 10.4588V7.84762C28 7.5072 27.8657 7.17852 27.6335 6.94506H27.6322ZM25.6719 9.08798V10.4575C25.6719 11.9091 24.9558 13.2212 23.8159 13.9216L24.1341 9.08798H25.6719ZM8.12934 13.889C7.02071 13.1808 6.32683 11.8804 6.32813 10.4575V9.08798H7.82544L8.12934 13.889Z" fill="url(#paint0_linear_663_35914)"/>
<path d="M27.6322 6.94506C27.4157 6.72855 27.1314 6.60986 26.8353 6.60986H24.2985L24.3858 5.31993L24.3885 5.23776C24.3885 4.91039 24.2685 4.60258 24.052 4.36911C23.8328 4.13173 23.5381 4 23.225 4H8.77626L8.6954 4.00261C8.05761 4.04956 7.57241 4.6404 7.61285 5.32123L7.69893 6.60855H5.16342C4.52302 6.61116 4 7.16678 4 7.84892V10.4575C4 13.5056 5.97728 16.135 8.72409 16.7702C9.74795 19.5926 12.0656 21.5869 14.8346 22.0382V25.5219H12.3878C11.7461 25.5219 11.2231 26.0788 11.2231 26.7609C11.2231 27.4431 11.7448 28 12.3878 28H19.6109C20.2526 28 20.7756 27.4431 20.7756 26.7609C20.7756 26.0788 20.2539 25.5219 19.6109 25.5219H17.1641V22.0368C19.9344 21.5869 22.2521 19.5939 23.2759 16.7728C26.0214 16.135 28 13.5056 28 10.4588V7.84762C28 7.5072 27.8657 7.17852 27.6335 6.94506H27.6322ZM25.6719 9.08798V10.4575C25.6719 11.9091 24.9558 13.2212 23.8159 13.9216L24.1341 9.08798H25.6719ZM8.12934 13.889C7.02071 13.1808 6.32683 11.8804 6.32813 10.4575V9.08798H7.82544L8.12934 13.889Z" fill="url(#paint1_linear_663_35914)" fill-opacity="0.2"/>
<defs>
<linearGradient id="paint0_linear_663_35914" x1="16" y1="4" x2="16" y2="28" gradientUnits="userSpaceOnUse">
<stop stop-color="#FFD800"/>
<stop offset="1" stop-color="#FF7A00"/>
</linearGradient>
<linearGradient id="paint1_linear_663_35914" x1="16" y1="4" x2="16" y2="28" gradientUnits="userSpaceOnUse">
<stop stop-color="white"/>
<stop offset="1" stop-color="white" stop-opacity="0"/>
</linearGradient>
</defs>
</svg>
