<svg width="20" height="21" viewBox="0 0 20 21" fill="none" xmlns="http://www.w3.org/2000/svg">
<path d="M10 2.30625C12.6506 2.30625 13.0121 2.30625 14.0964 2.30625C15.0602 2.30625 15.5422 2.54722 15.9036 2.6677C16.3855 2.90866 16.747 3.02915 17.1084 3.39059C17.4699 3.75204 17.7108 4.11348 17.8313 4.59541C17.9518 4.95686 18.0723 5.43878 18.1928 6.40264C18.1928 7.48698 18.1928 7.72794 18.1928 10.499C18.1928 13.2701 18.1928 13.5111 18.1928 14.5954C18.1928 15.5593 17.9518 16.0412 17.8313 16.4026C17.5904 16.8846 17.4699 17.246 17.1084 17.6075C16.747 17.9689 16.3855 18.2099 15.9036 18.3304C15.5422 18.4508 15.0602 18.5713 14.0964 18.6918C13.0121 18.6918 12.7711 18.6918 10 18.6918C7.22892 18.6918 6.98795 18.6918 5.90362 18.6918C4.93976 18.6918 4.45783 18.4508 4.09639 18.3304C3.61446 18.0894 3.25301 17.9689 2.89157 17.6075C2.53012 17.246 2.28916 16.8846 2.16868 16.4026C2.04819 16.0412 1.92771 15.5593 1.80723 14.5954C1.80723 13.5111 1.80723 13.2701 1.80723 10.499C1.80723 7.72794 1.80723 7.48698 1.80723 6.40264C1.80723 5.43878 2.04819 4.95686 2.16868 4.59541C2.40964 4.11348 2.53012 3.75204 2.89157 3.39059C3.25301 3.02915 3.61446 2.78818 4.09639 2.6677C4.45783 2.54722 4.93976 2.42673 5.90362 2.30625C6.98795 2.30625 7.3494 2.30625 10 2.30625ZM10 0.499023C7.22892 0.499023 6.98795 0.499023 5.90362 0.499023C4.81928 0.499023 4.09639 0.739988 3.49398 0.980952C2.89157 1.22192 2.28916 1.58336 1.68675 2.18577C1.08434 2.78818 0.843374 3.27011 0.481928 3.993C0.240965 4.59541 0.120482 5.3183 0 6.40264C0 7.48698 0 7.84842 0 10.499C0 13.2701 0 13.5111 0 14.5954C0 15.6797 0.240965 16.4026 0.481928 17.005C0.722892 17.6075 1.08434 18.2099 1.68675 18.8123C2.28916 19.4147 2.77109 19.6557 3.49398 20.0171C4.09639 20.2581 4.81928 20.3785 5.90362 20.499C6.98795 20.499 7.3494 20.499 10 20.499C12.6506 20.499 13.0121 20.499 14.0964 20.499C15.1807 20.499 15.9036 20.2581 16.506 20.0171C17.1084 19.7761 17.7108 19.4147 18.3133 18.8123C18.9157 18.2099 19.1566 17.7279 19.5181 17.005C19.759 16.4026 19.8795 15.6797 20 14.5954C20 13.5111 20 13.1496 20 10.499C20 7.84842 20 7.48698 20 6.40264C20 5.3183 19.759 4.59541 19.5181 3.993C19.2771 3.39059 18.9157 2.78818 18.3133 2.18577C17.7108 1.58336 17.2289 1.3424 16.506 0.980952C15.9036 0.739988 15.1807 0.619505 14.0964 0.499023C13.0121 0.499023 12.7711 0.499023 10 0.499023Z" fill="white"/>
<path d="M10 5.3183C7.10843 5.3183 4.81928 7.60746 4.81928 10.499C4.81928 13.3906 7.10843 15.6797 10 15.6797C12.8916 15.6797 15.1807 13.3906 15.1807 10.499C15.1807 7.60746 12.8916 5.3183 10 5.3183ZM10 13.8725C8.19277 13.8725 6.62651 12.4267 6.62651 10.499C6.62651 8.6918 8.07229 7.12553 10 7.12553C11.8072 7.12553 13.3735 8.57131 13.3735 10.499C13.3735 12.3063 11.8072 13.8725 10 13.8725Z" fill="white"/>
<path d="M15.3012 6.40264C15.9666 6.40264 16.506 5.86322 16.506 5.19782C16.506 4.53242 15.9666 3.993 15.3012 3.993C14.6358 3.993 14.0964 4.53242 14.0964 5.19782C14.0964 5.86322 14.6358 6.40264 15.3012 6.40264Z" fill="white"/>
</svg>
