<svg width="22" height="15" viewBox="0 0 22 15" fill="none" xmlns="http://www.w3.org/2000/svg">
<path d="M11.9825 14.499C4.46596 14.499 0.178638 9.24377 0 0.499023H3.76515C3.88882 6.91744 6.66459 9.63616 8.86321 10.1967V0.499023H12.4085V6.03456C14.5796 5.79632 16.8607 3.2738 17.6302 0.499023H21.1755C20.8855 1.9381 20.3075 3.30068 19.4776 4.50152C18.6477 5.70237 17.5837 6.71566 16.3523 7.478C17.7269 8.17458 18.941 9.16052 19.9145 10.3708C20.888 11.581 21.5988 12.9881 22 14.499H18.0974C17.7373 13.1866 17.0054 12.0118 15.9934 11.1218C14.9814 10.2319 13.7343 9.6663 12.4085 9.49602V14.499H11.9825Z" fill="white"/>
</svg>
