<svg width="22" height="15" viewBox="0 0 22 15" fill="none" xmlns="http://www.w3.org/2000/svg">
<path fill-rule="evenodd" clip-rule="evenodd" d="M2.26249 14.5558C1.87023 14.4398 1.51232 14.2333 1.21896 13.9539C0.925599 13.6744 0.705403 13.3302 0.576947 12.9503C-0.157079 10.9864 -0.374569 2.78595 1.03911 1.1671C1.50961 0.640472 2.17389 0.316242 2.88777 0.264783C6.68024 -0.133297 18.3975 -0.0802192 19.7432 0.397476C20.1217 0.517346 20.4675 0.71928 20.7547 0.988145C21.0419 1.25701 21.263 1.58584 21.4015 1.94999C22.2035 3.98019 22.2307 11.3579 21.2928 13.3085C21.044 13.8163 20.6275 14.2276 20.1102 14.4762C18.6965 15.1662 4.13833 15.153 2.26249 14.5558ZM8.28422 10.7077L15.0808 7.25771L8.28422 3.78115V10.7077Z" fill="white"/>
</svg>
