<svg width="28" height="28" viewBox="0 0 28 28" fill="none" xmlns="http://www.w3.org/2000/svg">
<path d="M2.883 21.0197C1.955 21.0197 1 21.7457 1 23.0167C1 24.1787 1.84 24.9987 2.883 24.9987C3.744 24.9987 4.128 24.4347 4.128 24.4347V24.6807C4.128 24.7967 4.241 24.9267 4.38 24.9267H5.003V21.1067H4.128V21.5917C4.128 21.5917 3.741 21.0197 2.883 21.0197ZM3.039 21.8007C3.803 21.8007 4.204 22.4567 4.204 23.0157C4.204 23.6397 3.728 24.2307 3.04 24.2317C2.466 24.2317 1.89 23.7767 1.89 23.0077C1.89 22.3137 2.385 21.8007 3.039 21.8007ZM6.218 24.9277C6.083 24.9277 5.966 24.8337 5.966 24.6817V21.1077H6.841V21.5807C7.039 21.2897 7.426 21.0197 8.021 21.0197C8.992 21.0197 9.509 21.7757 9.509 22.4827V24.9277H8.902C8.83223 24.9282 8.76506 24.9012 8.71508 24.8525C8.66509 24.8039 8.63631 24.7374 8.635 24.6677V22.6707C8.635 22.2787 8.389 21.8027 7.82 21.8027C7.206 21.8027 6.84 22.3687 6.84 22.9027V24.9277H6.218ZM12.062 21.0227C11.134 21.0227 10.179 21.7487 10.179 23.0187C10.179 24.1807 11.019 25.0017 12.062 25.0017C12.923 25.0017 13.307 24.4367 13.307 24.4367V24.6827C13.307 24.7997 13.42 24.9287 13.559 24.9287H14.182V19.1987H13.307V21.5937C13.307 21.5937 12.92 21.0227 12.062 21.0227ZM12.218 21.8027C12.982 21.8027 13.383 22.4597 13.383 23.0187C13.383 23.6417 12.907 24.2337 12.219 24.2337C11.645 24.2337 11.069 23.7797 11.069 23.0107C11.069 22.3167 11.564 21.8027 12.218 21.8027ZM15.396 24.9247C15.261 24.9247 15.144 24.8307 15.144 24.6787V21.1047H16.018V21.7417C16.168 21.3847 16.494 21.0617 17.071 21.0617C17.231 21.0617 17.382 21.0907 17.382 21.0907V21.9727C17.382 21.9727 17.194 21.9007 16.967 21.9007C16.353 21.9007 16.018 22.4667 16.018 22.9997V24.9247H15.396ZM22.69 24.9287C22.555 24.9287 22.437 24.8347 22.437 24.6827V21.1087H23.312V24.9287H22.69ZM25.88 21.0227C24.951 21.0227 23.997 21.7487 23.997 23.0187C23.997 24.1807 24.837 25.0017 25.88 25.0017C26.741 25.0017 27.125 24.4367 27.125 24.4367V24.6827C27.125 24.7997 27.238 24.9287 27.377 24.9287H28V19.1987H27.125V21.5937C27.125 21.5937 26.738 21.0227 25.88 21.0227ZM26.036 21.8027C26.8 21.8027 27.201 22.4597 27.201 23.0187C27.201 23.6417 26.725 24.2337 26.037 24.2337C25.462 24.2337 24.887 23.7797 24.887 23.0107C24.887 22.3167 25.382 21.8027 26.036 21.8027ZM22.87 20.2827C23.189 20.2827 23.448 20.0307 23.448 19.7187C23.4471 19.6435 23.4314 19.5693 23.4018 19.5003C23.3722 19.4312 23.3293 19.3687 23.2755 19.3162C23.2218 19.2638 23.1582 19.2224 23.0884 19.1945C23.0187 19.1666 22.9441 19.1527 22.869 19.1537C22.7175 19.1521 22.5715 19.2107 22.4631 19.3166C22.3547 19.4225 22.2928 19.5671 22.291 19.7187C22.291 20.0307 22.55 20.2827 22.869 20.2827H22.87ZM19.69 21.0197C18.719 21.0197 17.65 21.7277 17.65 23.0107C17.65 24.1807 18.56 25.0007 19.689 25.0007C21.079 25.0007 21.759 23.9097 21.759 23.0187C21.759 21.9257 20.883 21.0197 19.69 21.0197ZM19.694 21.8167C20.366 21.8167 20.868 22.3467 20.868 23.0137C20.868 23.6927 20.336 24.2167 19.696 24.2167C19.102 24.2167 18.526 23.7457 18.526 23.0247C18.526 22.2927 19.074 21.8167 19.694 21.8167ZM21.086 6.44966L23.325 2.66566C23.3546 2.61529 23.3739 2.5595 23.3816 2.50157C23.3893 2.44365 23.3854 2.38477 23.37 2.32839C23.3546 2.27201 23.3281 2.21928 23.2921 2.1733C23.256 2.12732 23.2111 2.08902 23.16 2.06066C23.0567 2.0012 22.9342 1.98465 22.8188 2.01457C22.7034 2.04449 22.6044 2.11849 22.543 2.22066L20.276 6.05366C18.546 5.28366 16.598 4.85366 14.504 4.85366C12.41 4.85366 10.462 5.28366 8.732 6.05366L6.465 2.22166C6.40304 2.11928 6.30348 2.04522 6.18761 2.01531C6.07173 1.98541 5.94876 2.00205 5.845 2.06166C5.79392 2.08991 5.74903 2.12812 5.713 2.17404C5.67696 2.21995 5.65051 2.27264 5.63522 2.32897C5.61992 2.3853 5.6161 2.44412 5.62396 2.50196C5.63182 2.5598 5.65122 2.61546 5.681 2.66566L7.919 6.45066C6.00076 7.45993 4.3646 8.93179 3.15872 10.7329C1.95284 12.5341 1.21533 14.6076 1.013 16.7657H27.995C27.7927 14.6072 27.0549 12.5333 25.8484 10.7321C24.642 8.93089 23.005 7.45827 21.086 6.44966ZM8.31 13.0687C7.685 13.0687 7.18 12.5727 7.18 11.9647C7.18 11.3547 7.688 10.8607 8.31 10.8607C8.936 10.8607 9.441 11.3567 9.441 11.9647C9.444 12.5727 8.935 13.0687 8.31 13.0687ZM20.697 13.0687C20.071 13.0687 19.566 12.5727 19.566 11.9647C19.566 11.3547 20.074 10.8607 20.696 10.8607C21.322 10.8607 21.828 11.3567 21.828 11.9647C21.83 12.5727 21.322 13.0687 20.697 13.0687Z" fill="white"/>
</svg>
