<svg width="40" height="41" viewBox="0 0 40 41" fill="none" xmlns="http://www.w3.org/2000/svg">
<g clip-path="url(#clip0_415_100488)">
<path d="M20 40.499C31.0457 40.499 40 31.5447 40 20.499C40 9.45333 31.0457 0.499023 20 0.499023C8.9543 0.499023 0 9.45333 0 20.499C0 31.5447 8.9543 40.499 20 40.499Z" fill="#FE284A"/>
<path d="M20.0004 36.0989C28.616 36.0989 35.6004 29.1146 35.6004 20.4989C35.6004 11.8833 28.616 4.89893 20.0004 4.89893C11.3847 4.89893 4.40039 11.8833 4.40039 20.4989C4.40039 29.1146 11.3847 36.0989 20.0004 36.0989Z" fill="white"/>
<path d="M10.6401 18.249C10.5231 18.3405 10.3786 18.3898 10.2301 18.389C10.1165 18.3891 10.0045 18.3619 9.90355 18.3097C9.80262 18.2575 9.7157 18.1818 9.65008 18.089L9.14008 17.429C9.05123 17.3106 9.00222 17.1671 9.00008 17.019C8.99831 16.9051 9.02478 16.7925 9.07713 16.6913C9.12948 16.5901 9.20608 16.5034 9.30008 16.439L11.3001 14.979C11.5136 14.7918 11.7862 14.6856 12.0701 14.679H12.6501C12.8349 14.6816 13.0115 14.7562 13.1422 14.8869C13.2729 15.0176 13.3475 15.1942 13.3501 15.379V24.569C13.3475 24.7539 13.2729 24.9304 13.1422 25.0611C13.0115 25.1919 12.8349 25.2664 12.6501 25.269H11.7701C11.5977 25.2495 11.4384 25.1675 11.3223 25.0385C11.2063 24.9095 11.1414 24.7425 11.1401 24.569V17.869L10.6401 18.249ZM22.4501 17.309C22.4522 17.8281 22.3115 18.3377 22.0434 18.7821C21.7753 19.2266 21.3902 19.5888 20.9301 19.829C21.4657 19.9963 21.9308 20.3363 22.2528 20.7958C22.5748 21.2553 22.7356 21.8085 22.7101 22.369C22.7101 24.369 21.1001 25.499 18.8801 25.499C16.6601 25.499 15.0301 24.369 15.0301 22.569C15.0032 22.0054 15.1436 21.4464 15.4336 20.9624C15.7236 20.4784 16.1504 20.091 16.6601 19.849C16.2219 19.5908 15.8626 19.2176 15.6212 18.7699C15.3797 18.3222 15.2652 17.8171 15.2901 17.309C15.2901 15.639 16.8701 14.499 18.8601 14.499C20.8501 14.499 22.4501 15.629 22.4501 17.309ZM17.4501 22.109C17.4501 22.699 17.8501 23.219 18.8501 23.219C19.8501 23.219 20.2601 22.719 20.2601 22.159C20.2603 21.997 20.2256 21.8368 20.1585 21.6894C20.0913 21.5419 19.9933 21.4106 19.8709 21.3044C19.7486 21.1981 19.6048 21.1195 19.4494 21.0737C19.2939 21.0279 19.1305 21.0161 18.9701 21.039H18.7901C18.6321 21.0196 18.4719 21.0321 18.3188 21.0757C18.1657 21.1193 18.023 21.1932 17.899 21.2929C17.7749 21.3927 17.6722 21.5163 17.5968 21.6565C17.5214 21.7967 17.4749 21.9506 17.4601 22.109H17.4501ZM20.0001 17.719C20.0001 17.129 19.6001 16.779 18.8301 16.779C18.0601 16.779 17.7101 17.219 17.7101 17.719C17.7098 17.8555 17.7376 17.9907 17.7915 18.1161C17.8455 18.2415 17.9246 18.3545 18.0239 18.4482C18.1232 18.5419 18.2406 18.6143 18.369 18.6608C18.4973 18.7074 18.6338 18.7272 18.7701 18.719H18.9701C19.1056 18.7258 19.241 18.705 19.3681 18.6577C19.4953 18.6105 19.6115 18.538 19.7097 18.4444C19.808 18.3509 19.8861 18.2383 19.9395 18.1136C19.9928 17.9889 20.0203 17.8547 20.0201 17.719H20.0001ZM26.8801 23.459C26.6873 23.4564 26.5031 23.3787 26.3668 23.2423C26.2304 23.106 26.1527 22.9218 26.1501 22.729V20.829H24.3601C24.1673 20.8264 23.9831 20.7487 23.8468 20.6123C23.7104 20.476 23.6327 20.2918 23.6301 20.099V19.569C23.6327 19.3762 23.7104 19.192 23.8468 19.0557C23.9831 18.9194 24.1673 18.8416 24.3601 18.839H26.1401V16.989C26.1427 16.7962 26.2204 16.612 26.3568 16.4757C26.4931 16.3394 26.6773 16.2616 26.8701 16.259H27.5401C27.7329 16.2616 27.9171 16.3394 28.0534 16.4757C28.1898 16.612 28.2675 16.7962 28.2701 16.989V18.859H30.1401C30.3329 18.8616 30.5171 18.9394 30.6534 19.0757C30.7898 19.212 30.8675 19.3962 30.8701 19.589V20.109C30.8675 20.3018 30.7898 20.486 30.6534 20.6223C30.5171 20.7587 30.3329 20.8364 30.1401 20.839H28.2801V22.739C28.2775 22.9318 28.1998 23.116 28.0634 23.2523C27.9271 23.3887 27.7429 23.4664 27.5501 23.469L26.8801 23.459Z" fill="black"/>
</g>
<defs>
<clipPath id="clip0_415_100488">
<rect width="40" height="40" fill="white" transform="translate(0 0.499023)"/>
</clipPath>
</defs>
</svg>
