<svg width="16" height="16" viewBox="0 0 16 16" fill="none" xmlns="http://www.w3.org/2000/svg">
<mask id="mask0_879_29569" style="mask-type:alpha" maskUnits="userSpaceOnUse" x="0" y="0" width="16" height="16">
<path d="M1.33331 2.75C1.33331 2.34375 1.63093 2 2.0476 2H13.9524C14.3393 2 14.6666 2.34375 14.6666 2.75C14.6666 3.1875 14.3393 3.5 13.9524 3.5H2.0476C1.63093 3.5 1.33331 3.1875 1.33331 2.75ZM1.33331 7.75C1.33331 7.34375 1.63093 7 2.0476 7H13.9524C14.3393 7 14.6666 7.34375 14.6666 7.75C14.6666 8.1875 14.3393 8.5 13.9524 8.5H2.0476C1.63093 8.5 1.33331 8.1875 1.33331 7.75ZM13.9524 13.5H2.0476C1.63093 13.5 1.33331 13.1875 1.33331 12.75C1.33331 12.3438 1.63093 12 2.0476 12H13.9524C14.3393 12 14.6666 12.3438 14.6666 12.75C14.6666 13.1875 14.3393 13.5 13.9524 13.5Z" fill="white"/>
</mask>
<g mask="url(#mask0_879_29569)">
<rect width="16" height="16" fill="white"/>
</g>
</svg>
