<svg width="24" height="24" viewBox="0 0 24 24" fill="none" xmlns="http://www.w3.org/2000/svg">
<mask id="mask0_879_29351" style="mask-type:alpha" maskUnits="userSpaceOnUse" x="0" y="0" width="24" height="24">
<path fill-rule="evenodd" clip-rule="evenodd" d="M5.21175 17.9398C4.97743 18.1741 4.97743 18.554 5.21175 18.7883C5.44606 19.0226 5.82596 19.0226 6.06027 18.7883L12 12.8486L17.9397 18.7883C18.174 19.0226 18.5539 19.0226 18.7882 18.7883C19.0225 18.554 19.0225 18.1741 18.7882 17.9398L12.8485 12.0001L18.7882 6.0604C19.0225 5.82608 19.0225 5.44618 18.7882 5.21187C18.5539 4.97755 18.174 4.97755 17.9397 5.21187L12 11.1516L6.06027 5.21187C5.82596 4.97755 5.44606 4.97755 5.21175 5.21187C4.97743 5.44618 4.97743 5.82608 5.21175 6.0604L11.1514 12.0001L5.21175 17.9398Z" fill="white"/>
</mask>
<g mask="url(#mask0_879_29351)">
<rect width="24" height="24" fill="#4E4E73"/>
</g>
</svg>
