<svg width="20" height="20" viewBox="0 0 20 20" fill="none" xmlns="http://www.w3.org/2000/svg">
<g clip-path="url(#clip0_879_6193)">
<path d="M8.19999 13.5488L11.8 13.5488L11.8 17.3488L8.19999 17.3488L8.19999 13.5488Z" fill="url(#paint0_radial_879_6193)"/>
<path d="M11.9 17.3486L8.1 17.3486C7.94087 17.3486 7.78826 17.4118 7.67574 17.5244C7.56321 17.6369 7.5 17.7895 7.5 17.9486L12.5 17.9486C12.5 17.7895 12.4368 17.6369 12.3243 17.5244C12.2117 17.4118 12.0591 17.3486 11.9 17.3486Z" fill="url(#paint1_linear_879_6193)"/>
<path d="M7.74878 17.4633C7.85069 17.3887 7.97367 17.3484 8.09998 17.3481L11.9 17.3481C12.0259 17.3488 12.1484 17.3891 12.2502 17.4633L7.74878 17.4633Z" fill="url(#paint2_linear_879_6193)"/>
<path d="M5.5 17.9487L14.5 17.9487C15.0523 17.9487 15.5 18.3964 15.5 18.9487C15.5 19.501 15.0523 19.9487 14.5 19.9487L5.5 19.9487C4.94771 19.9487 4.5 19.501 4.5 18.9487C4.5 18.3964 4.94771 17.9487 5.5 17.9487Z" fill="url(#paint3_linear_879_6193)"/>
<path d="M4.79626 18.2387C4.98332 18.0526 5.23658 17.9483 5.50046 17.9487L14.5005 17.9487C14.7646 17.9489 15.0181 18.053 15.2061 18.2387L4.79626 18.2387Z" fill="url(#paint4_linear_879_6193)"/>
<path d="M2.81968 2.55187L2.81968 3.48187L2.89768 4.45587L3.15368 7.68387L3.39368 10.7059C3.40746 10.8994 3.49222 11.081 3.63168 11.2159C4.11368 11.6859 5.45368 12.7659 8.19968 13.5479L11.7997 13.5479C14.5457 12.7659 15.8857 11.6859 16.3677 11.2159C16.5072 11.081 16.5919 10.8994 16.6057 10.7059L16.8457 7.68387L17.1017 4.45587L17.1797 3.48187L17.1797 2.55187C17.1795 2.18584 17.0789 1.82687 16.8889 1.51406C16.6988 1.20126 16.4265 0.946613 16.1017 0.777873C16.0577 0.753873 16.0117 0.733873 15.9657 0.713873C15.859 0.667968 15.7486 0.63117 15.6357 0.603873C15.4157 0.551873 15.1837 0.505873 14.9397 0.467873C14.8597 0.453873 14.7757 0.441873 14.6937 0.429873C14.6117 0.417873 14.5257 0.405873 14.4417 0.395873C14.2937 0.375873 14.1457 0.359873 13.9937 0.343873C13.8957 0.333873 13.7977 0.323873 13.6977 0.315873L13.3997 0.291873C13.3237 0.285873 13.2497 0.279873 13.1737 0.275873C12.9777 0.261873 12.7837 0.251873 12.5897 0.241873C11.6277 0.195873 10.6977 0.191872 9.99969 0.191872C8.45842 0.167778 6.91722 0.243268 5.38569 0.417872C5.02369 0.467872 4.67969 0.529872 4.36368 0.603872C4.24475 0.631727 4.12885 0.671252 4.01768 0.721872C3.98406 0.735849 3.95134 0.751879 3.91968 0.769872C3.91033 0.772184 3.90151 0.776256 3.89369 0.781872C3.88601 0.783872 3.87906 0.788038 3.87369 0.793872C3.83577 0.812241 3.79903 0.832948 3.76368 0.855872C3.75568 0.859872 3.74768 0.865872 3.73968 0.869872L3.73968 0.871872C3.7058 0.892015 3.67309 0.91405 3.64168 0.937872C3.60768 0.961872 3.57568 0.987872 3.54368 1.01387L3.50768 1.04387C3.48568 1.06187 3.46368 1.08187 3.44368 1.10187C3.42368 1.12187 3.40568 1.13787 3.38968 1.15587C3.36168 1.18387 3.33569 1.21187 3.30969 1.24187C3.29169 1.26187 3.27569 1.28187 3.25768 1.30387C3.23769 1.32987 3.21768 1.35387 3.19768 1.38187C3.19754 1.38341 3.19683 1.38483 3.19569 1.38587C3.17368 1.41587 3.15368 1.44587 3.13368 1.47787C3.08561 1.55279 3.04284 1.63098 3.00568 1.71187C2.98765 1.7483 2.97162 1.78569 2.95769 1.82387C2.95605 1.82869 2.95405 1.83337 2.95169 1.83787C2.94369 1.85987 2.93569 1.88187 2.92969 1.90387C2.91759 1.93382 2.90757 1.96456 2.89968 1.99587C2.88768 2.03387 2.87768 2.07187 2.86969 2.10987C2.85968 2.14987 2.85169 2.19187 2.84569 2.23187C2.82793 2.3376 2.81923 2.44466 2.81968 2.55187Z" fill="url(#paint5_radial_879_6193)"/>
<path d="M2.81969 2.55187L2.81969 3.16987C3.03821 2.95492 3.28846 2.77482 3.56169 2.63587C3.64369 2.58987 3.72769 2.54787 3.81169 2.50787C3.87169 2.47787 3.93169 2.44987 3.99169 2.42187L3.99369 2.42187C4.09169 2.37587 4.18969 2.33387 4.28969 2.29587C4.33969 2.27587 4.38769 2.25787 4.43769 2.23787C5.03296 2.0238 5.64509 1.8599 6.26769 1.74787C7.4998 1.53146 8.74872 1.42504 9.99969 1.42987C11.1539 1.42368 12.3068 1.50861 13.4477 1.68387C13.5437 1.69787 13.6377 1.71387 13.7337 1.73187C14.3575 1.84253 14.971 2.00509 15.5677 2.21787C15.6797 2.26187 15.7917 2.30187 15.9017 2.34987C15.9377 2.36587 15.9757 2.38187 16.0117 2.39987C16.0417 2.41187 16.0717 2.42587 16.1017 2.43987C16.2177 2.49187 16.3337 2.55187 16.4477 2.61187C16.7142 2.74953 16.9605 2.92316 17.1797 3.12787L17.1797 2.55187C17.1795 2.18584 17.0789 1.82687 16.8889 1.51406C16.6988 1.20126 16.4265 0.946613 16.1017 0.777873C16.0577 0.753873 16.0117 0.733873 15.9657 0.713873C15.859 0.667968 15.7486 0.63117 15.6357 0.603873C15.4157 0.551873 15.1837 0.505873 14.9397 0.467873C14.8597 0.453873 14.7757 0.441873 14.6937 0.429873C14.6117 0.417873 14.5257 0.405873 14.4417 0.395873C14.2937 0.375873 14.1457 0.359873 13.9937 0.343873C13.8957 0.333873 13.7977 0.323873 13.6977 0.315873L13.3997 0.291873C13.3237 0.285873 13.2497 0.279873 13.1737 0.275873C12.9777 0.261873 12.7837 0.251873 12.5897 0.241873C11.6277 0.195873 10.6977 0.191872 9.99969 0.191872C8.45843 0.167778 6.91722 0.243268 5.38569 0.417872C5.02369 0.467872 4.67969 0.529872 4.36369 0.603872C4.24475 0.631727 4.12886 0.671252 4.01769 0.721872C3.98407 0.735849 3.95134 0.751879 3.91969 0.769872C3.91034 0.772184 3.90151 0.776256 3.89369 0.781872C3.88601 0.783873 3.87907 0.788038 3.87369 0.793872C3.83577 0.812241 3.79903 0.832948 3.76369 0.855872C3.75569 0.859872 3.74769 0.865872 3.73969 0.869872L3.73969 0.871872C3.70581 0.892015 3.67309 0.91405 3.64169 0.937872C3.60769 0.961872 3.57569 0.987872 3.54369 1.01387L3.50769 1.04387C3.48569 1.06187 3.46369 1.08187 3.44369 1.10187C3.42369 1.12187 3.40569 1.13787 3.38969 1.15587C3.36169 1.18387 3.33569 1.21187 3.30969 1.24187C3.29169 1.26187 3.27569 1.28187 3.25769 1.30387C3.23769 1.32987 3.21769 1.35387 3.19769 1.38187C3.19754 1.38341 3.19683 1.38483 3.19569 1.38587C3.17369 1.41587 3.15369 1.44587 3.13369 1.47787C3.08561 1.55279 3.04284 1.63098 3.00569 1.71187C2.98765 1.7483 2.97162 1.78569 2.95769 1.82387C2.95605 1.82869 2.95405 1.83337 2.95169 1.83787C2.94369 1.85987 2.93569 1.88187 2.92969 1.90387C2.9176 1.93382 2.90757 1.96456 2.89969 1.99587C2.88769 2.03387 2.87769 2.07187 2.86969 2.10987C2.85969 2.14987 2.85169 2.19187 2.84569 2.23187C2.82793 2.3376 2.81923 2.44466 2.81969 2.55187Z" fill="url(#paint6_linear_879_6193)"/>
<path d="M10.4817 13.548L11.7997 13.548C14.5457 12.766 15.8857 11.686 16.3677 11.216C16.5072 11.0811 16.5919 10.8995 16.6057 10.706L16.8457 7.68399L17.1017 4.45599L17.1797 3.48199L17.1797 2.55199C17.1795 2.18596 17.0789 1.82699 16.8889 1.51418C16.6988 1.20138 16.4265 0.946733 16.1017 0.777992C16.0577 0.753992 16.0117 0.733992 15.9657 0.713992C15.859 0.668087 15.7486 0.631289 15.6357 0.603992C15.4157 0.551992 15.1837 0.505992 14.9397 0.467992C14.8597 0.453992 14.7757 0.441992 14.6937 0.429992C14.6117 0.417992 14.5257 0.405992 14.4417 0.395992C14.2937 0.375992 14.1457 0.359992 13.9937 0.343992C13.8957 0.333992 13.7977 0.323992 13.6977 0.315992L13.3997 0.291992C13.4077 0.495992 13.4277 0.999992 13.4477 1.68399C13.5237 4.18999 13.6017 9.10799 13.1217 10.494C12.5057 11.832 10.4817 13.548 10.4817 13.548Z" fill="url(#paint7_linear_879_6193)"/>
<path d="M10.4817 13.548L11.7997 13.548C14.5457 12.766 15.8857 11.686 16.3677 11.216C16.5072 11.0811 16.5919 10.8995 16.6057 10.706L16.8457 7.68399L17.1017 4.45599L17.1797 3.48199L17.1797 2.55199C17.1795 2.18596 17.0789 1.82699 16.8889 1.51418C16.6988 1.20138 16.4265 0.946733 16.1017 0.777992C16.0577 0.753992 16.0117 0.733992 15.9657 0.713992C15.859 0.668087 15.7486 0.631289 15.6357 0.603992C15.4157 0.551992 15.1837 0.505992 14.9397 0.467992C14.8597 0.453992 14.7757 0.441992 14.6937 0.429992C14.6117 0.417992 14.5257 0.405992 14.4417 0.395992C14.2937 0.375992 14.1457 0.359992 13.9937 0.343992C13.8957 0.333992 13.7977 0.323992 13.6977 0.315992L13.3997 0.291992C13.4077 0.495992 13.4277 0.999992 13.4477 1.68399C13.5237 4.18999 13.6017 9.10799 13.1217 10.494C12.5057 11.832 10.4817 13.548 10.4817 13.548Z" fill="url(#paint8_linear_879_6193)"/>
<path d="M-0.000420323 6.24998C-0.00042047 7.92998 0.748979 11.07 0.841579 11.476C1.01098 12.2188 0.81758 13.548 3.07358 13.548C3.51158 13.548 4.01758 13.34 4.01758 13.018C4.01758 12.12 2.56758 11.244 2.15358 10.416C1.73958 9.58798 1.55558 8.34398 1.55558 6.70998C1.55558 6.20398 1.53158 5.55998 1.89958 5.55998C2.26758 5.55998 2.24558 6.15798 2.24558 6.61798C2.24558 7.07798 2.26558 7.76998 2.81958 7.76998C3.14558 7.76998 3.15358 7.69198 3.15358 7.68398L2.89758 4.45598C2.89758 4.45598 2.40558 3.62598 1.53158 3.62598C0.657581 3.62598 -0.000420176 4.56998 -0.000420323 6.24998Z" fill="url(#paint9_linear_879_6193)"/>
<path d="M11.634 13.1001L11.85 13.1001C12.4559 12.9289 13.0516 12.7232 13.634 12.4841C14.3891 12.0882 15.0607 11.5504 15.612 10.9001C15.8591 10.5945 16.0033 10.2186 16.024 9.82609L16.374 3.05009L15.55 2.78809C15.55 2.78809 15.512 8.32009 14.962 10.0001C14.53 11.3221 12.486 12.6101 11.634 13.1001Z" fill="url(#paint10_linear_879_6193)"/>
<path opacity="0.82" d="M7.14719 11.741C7.17479 11.6433 7.2398 11.5604 7.32811 11.5103C7.41642 11.4601 7.52093 11.4468 7.61899 11.4732C8.36136 11.7811 9.15879 11.9342 9.9624 11.923C10.766 11.9118 11.5589 11.7366 12.2924 11.4082C12.3809 11.3599 12.4845 11.3472 12.582 11.3728C12.6795 11.3983 12.7636 11.4601 12.817 11.5456C12.8675 11.6337 12.8815 11.738 12.8557 11.8362C12.83 11.9344 12.7666 12.0185 12.6794 12.0704C11.8579 12.4516 10.9672 12.6608 10.0619 12.6853C9.15662 12.7098 8.25589 12.549 7.41499 12.2128C7.31869 12.1831 7.23737 12.1177 7.18761 12.03C7.13785 11.9423 7.12339 11.839 7.14719 11.741Z" fill="url(#paint11_radial_879_6193)"/>
<path d="M9.69597 13.5479L10.452 13.5479C10.452 13.5479 12.754 11.7699 13.116 10.6279C13.478 9.4859 13.66 2.58189 13.66 2.58189L13.66 0.311895C13.5 0.299895 13.336 0.285895 13.174 0.275895C12.978 0.261894 12.784 0.251894 12.59 0.241894C11.628 0.195894 10.698 0.191894 9.99997 0.191894C9.99997 0.191894 10.32 6.3599 10.32 8.3659C10.32 9.3539 9.69597 13.5479 9.69597 13.5479Z" fill="url(#paint12_radial_879_6193)"/>
<path d="M12.2763 9.73193L12.4223 9.77593C12.6453 9.0029 12.7959 8.21083 12.8723 7.40993C12.9623 6.61393 13.0283 5.81393 13.0683 5.01593C13.1543 3.43593 13.1863 1.86193 13.1743 0.275934C12.9783 0.261934 12.7843 0.251934 12.5903 0.241934L12.3651 0.231934C12.4831 1.80793 12.5743 3.41993 12.5963 5.00593C12.6083 5.79793 12.5963 6.5906 12.5603 7.38393C12.5404 8.17384 12.4453 8.96005 12.2763 9.73193Z" fill="url(#paint13_linear_879_6193)"/>
<path d="M2.81996 2.55207L2.81996 3.48207L2.89796 4.45607L3.15396 7.68407L3.38796 10.6281C3.40915 10.6559 3.43256 10.682 3.45796 10.7061C3.89596 11.1321 5.01796 12.0441 7.20996 12.8041C5.43196 11.3121 4.91796 9.82007 4.39196 7.40407L4.39196 7.38807C4.31596 6.14807 4.10396 4.06207 3.99196 2.42207C3.94796 1.77607 3.91796 1.19807 3.91996 0.770066L3.91996 0.768066C3.91089 0.771947 3.90219 0.776633 3.89396 0.782066C3.88628 0.784067 3.87934 0.788232 3.87396 0.794066C3.83604 0.812435 3.79931 0.833142 3.76396 0.856066C3.75596 0.860066 3.74796 0.866066 3.73996 0.870066L3.73996 0.872066C3.70608 0.892209 3.67336 0.914244 3.64196 0.938066C3.60796 0.962066 3.57596 0.988066 3.54396 1.01407L3.50796 1.04407C3.48596 1.06207 3.46396 1.08207 3.44396 1.10207C3.42396 1.12207 3.40596 1.13807 3.38996 1.15607C3.36196 1.18407 3.33596 1.21207 3.30996 1.24207C3.29196 1.26207 3.27596 1.28207 3.25796 1.30407C3.23796 1.33007 3.21796 1.35407 3.19796 1.38207C3.19781 1.3836 3.1971 1.38503 3.19596 1.38607C3.17396 1.41607 3.15396 1.44607 3.13396 1.47807C3.08588 1.55298 3.04311 1.63117 3.00596 1.71207C2.98792 1.74849 2.9719 1.78588 2.95796 1.82407C2.95633 1.82888 2.95432 1.83356 2.95196 1.83807C2.94396 1.86007 2.93596 1.88207 2.92996 1.90407C2.91787 1.93401 2.90784 1.96475 2.89996 1.99607C2.88796 2.03407 2.87796 2.07207 2.86996 2.11007C2.85996 2.15007 2.85196 2.19207 2.84596 2.23207C2.8282 2.3378 2.81951 2.44485 2.81996 2.55207Z" fill="url(#paint14_linear_879_6193)"/>
<path d="M2.82001 2.55207L2.82001 3.48207L2.89801 4.45607L3.15401 7.68407L3.39401 10.7061C3.40779 10.8996 3.49254 11.0812 3.63201 11.2161C4.11401 11.6861 5.45401 12.7661 8.20001 13.5481C5.60201 11.7801 5.00401 10.2181 4.39201 7.40407L4.39201 7.38807C4.31601 6.14807 4.10401 4.06207 3.99201 2.42207C3.94801 1.77607 3.91801 1.19807 3.92001 0.770066L3.92001 0.768066C3.91094 0.771947 3.90224 0.776633 3.89401 0.782066C3.88633 0.784067 3.87939 0.788232 3.87401 0.794066C3.8361 0.812435 3.79936 0.833142 3.76401 0.856066C3.75601 0.860066 3.74801 0.866066 3.74001 0.870066L3.74001 0.872066C3.70613 0.892209 3.67341 0.914244 3.64201 0.938066C3.60801 0.962066 3.57601 0.988066 3.54401 1.01407L3.50801 1.04407C3.48601 1.06207 3.46401 1.08207 3.44401 1.10207C3.42401 1.12207 3.40601 1.13807 3.39001 1.15607C3.36201 1.18407 3.33601 1.21207 3.31001 1.24207C3.29201 1.26207 3.27601 1.28207 3.25801 1.30407C3.23801 1.33007 3.21801 1.35407 3.19801 1.38207C3.19787 1.3836 3.19715 1.38503 3.19601 1.38607C3.17401 1.41607 3.15401 1.44607 3.13401 1.47807C3.08594 1.55298 3.04317 1.63117 3.00601 1.71207C2.98797 1.74849 2.97195 1.78588 2.95801 1.82407C2.95638 1.82888 2.95437 1.83356 2.95201 1.83807C2.94401 1.86007 2.93601 1.88207 2.93001 1.90407C2.91792 1.93401 2.9079 1.96475 2.90001 1.99607C2.88801 2.03407 2.87801 2.07207 2.87001 2.11007C2.86001 2.15007 2.85201 2.19207 2.84601 2.23207C2.82826 2.3378 2.81956 2.44485 2.82001 2.55207Z" fill="url(#paint15_linear_879_6193)"/>
<path d="M3.38831 10.6279L3.39431 10.7059C3.40808 10.8994 3.49284 11.0811 3.63231 11.2159C4.11431 11.6859 5.4543 12.7659 8.2003 13.5479L11.8003 13.5479C14.5463 12.7659 15.8863 11.6859 16.3683 11.2159C16.5078 11.0811 16.5925 10.8994 16.6063 10.7059L16.6123 10.6279C16.5911 10.6558 16.5677 10.6819 16.5423 10.7059C16.0463 11.1879 14.6703 12.2979 11.8503 13.0999L8.1503 13.0999C5.3303 12.2979 3.95431 11.1879 3.45831 10.7059C3.43291 10.6819 3.4095 10.6558 3.38831 10.6279Z" fill="url(#paint16_radial_879_6193)"/>
<path d="M14.9616 9.99987C15.0636 9.74587 15.0616 9.51387 15.1476 9.22787C15.2119 8.93622 15.2534 8.63998 15.2716 8.34187C15.3096 8.04387 15.3336 7.74187 15.3436 7.43987C15.3536 7.13787 15.4196 6.80387 15.4296 6.50387L15.5776 2.96587L16.0416 2.76587L16.1016 2.73987L16.1016 0.777867C16.0576 0.753867 16.0116 0.733867 15.9656 0.713867L15.9016 0.713867L15.9016 2.60987L15.4396 2.80787L15.3796 2.83387L15.3796 2.89987L15.3296 6.50587C15.3296 6.80587 15.2716 7.13987 15.2676 7.43987C15.2636 7.73987 15.2516 8.03787 15.2216 8.33587C15.2111 8.63257 15.1784 8.92808 15.1236 9.21987C15.0456 9.50787 15.0196 9.73987 14.9616 9.99987Z" fill="url(#paint17_linear_879_6193)"/>
<path d="M7.90798 3.03185C6.61498 2.90205 5.10418 2.99185 4.01838 3.49405C3.96739 3.51485 3.92518 3.55269 3.89896 3.60112C3.87273 3.64955 3.86412 3.70558 3.87459 3.75965C4.01739 5.21405 4.05819 6.29965 4.18259 7.17785C4.18453 7.21341 4.19417 7.24812 4.21083 7.27959C4.22748 7.31106 4.25077 7.33854 4.27908 7.36014C4.30739 7.38174 4.34005 7.39694 4.3748 7.40469C4.40956 7.41245 4.44558 7.41257 4.48039 7.40505C5.35619 7.27345 7.07158 7.03305 8.21218 7.04505C8.25532 7.04597 8.29812 7.03729 8.3375 7.01965C8.37688 7.00201 8.41184 6.97585 8.43988 6.94305C8.46791 6.91025 8.48831 6.87164 8.49961 6.83C8.5109 6.78835 8.5128 6.74472 8.50518 6.70225C8.35678 5.89285 8.25079 4.06905 8.21379 3.36065C8.20761 3.27931 8.17399 3.20247 8.11843 3.14274C8.06287 3.083 7.98867 3.0439 7.90798 3.03185Z" fill="url(#paint18_radial_879_6193)"/>
<path d="M3.74042 0.870262L3.74042 0.872262C3.76242 1.41826 3.78642 1.96359 3.81242 2.50826C3.83042 2.91626 3.85042 3.32426 3.87242 3.73226C3.93042 4.73426 4.08842 6.35826 4.18842 7.24626C4.23883 7.31487 4.31058 7.36481 4.39242 7.38826C4.42156 7.39764 4.45184 7.40302 4.48242 7.40426C4.42242 6.41426 4.30042 4.71826 4.29242 3.71826C4.29042 3.24426 4.28975 2.77026 4.29042 2.29626C4.29242 1.77026 4.29642 1.24426 4.30242 0.718262L4.01842 0.722262C3.9848 0.736238 3.95207 0.752269 3.92042 0.770262L3.92042 0.768262C3.91135 0.772143 3.90265 0.776828 3.89442 0.782262C3.88674 0.784262 3.8798 0.788428 3.87442 0.794262C3.83651 0.812631 3.79977 0.833337 3.76442 0.856262C3.75642 0.860262 3.74842 0.866262 3.74042 0.870262Z" fill="url(#paint19_radial_879_6193)"/>
<path d="M4.18838 7.24609C4.18838 7.24609 4.33638 9.85809 4.74838 10.6281C5.16038 11.3981 5.51438 12.0081 7.48437 12.8841C7.47437 12.8781 7.46637 12.8721 7.45637 12.8661C6.48638 12.4221 5.42038 11.6881 4.94438 10.8201C4.63038 10.2481 4.41438 8.87209 4.27038 7.24609L4.18838 7.24609Z" fill="url(#paint20_linear_879_6193)"/>
<path d="M4.01804 0.721968C4.01804 3.78397 4.21204 9.48197 4.94404 10.82C5.44804 11.74 6.61604 12.51 7.62804 12.942C7.63077 12.9445 7.63433 12.9459 7.63804 12.946C7.80404 12.998 7.97404 13.05 8.15004 13.1L8.29004 13.1C7.21404 12.604 6.69804 11.74 5.86804 10.278C4.92204 8.60397 5.37604 0.575969 5.38604 0.417968C5.02404 0.467968 4.68004 0.529968 4.36404 0.603968C4.2451 0.631824 4.12921 0.671349 4.01804 0.721968Z" fill="url(#paint21_linear_879_6193)"/>
<path opacity="0.47" d="M2.81969 3.16977L2.81969 3.37577C2.95769 3.27444 3.10348 3.18416 3.25569 3.10577C3.38996 3.03283 3.52817 2.9674 3.66969 2.90977C3.81169 2.85177 3.95369 2.79777 4.09969 2.75377C4.24369 2.70177 4.39169 2.66577 4.53969 2.62577C5.13073 2.47182 5.7314 2.35757 6.33769 2.28377C6.63969 2.24577 6.94369 2.21777 7.24769 2.18577C7.55369 2.16777 7.85769 2.13777 8.16369 2.12777C8.46969 2.11777 8.77369 2.09777 9.07969 2.09377L9.99969 2.08577L10.9177 2.09777C11.2257 2.10177 11.5297 2.12577 11.8357 2.13577C12.1417 2.14577 12.4457 2.17777 12.7497 2.19777C13.0537 2.22977 13.3577 2.25977 13.6597 2.29777C14.2647 2.37505 14.864 2.49196 15.4537 2.64777C15.6017 2.68777 15.7497 2.72577 15.8917 2.77577C16.0377 2.82177 16.1797 2.87577 16.3197 2.93377C16.4607 2.99097 16.5983 3.05642 16.7317 3.12977C16.8862 3.2012 17.0359 3.28271 17.1797 3.37377L17.1797 3.12777C16.9605 2.92305 16.7142 2.74943 16.4477 2.61177C16.3037 2.53577 16.1597 2.46177 16.0117 2.39977C15.8657 2.32977 15.7177 2.27577 15.5677 2.21777C14.971 2.00498 14.3575 1.84242 13.7337 1.73177C12.5003 1.52169 11.2508 1.42063 9.99969 1.42977C8.74872 1.42493 7.4998 1.53135 6.26769 1.74777C5.64509 1.85979 5.03296 2.0237 4.43769 2.23777C4.28769 2.29577 4.13969 2.35177 3.99369 2.42177C3.84769 2.48577 3.70369 2.55777 3.56169 2.63577C3.28846 2.77471 3.03821 2.95481 2.81969 3.16977Z" fill="url(#paint22_linear_879_6193)"/>
<path opacity="0.47" d="M2.81969 3.4717L2.81969 3.4817L2.82369 3.5437L2.83169 3.6257C2.96693 3.54682 3.1088 3.4799 3.25569 3.4257C3.39113 3.3695 3.5293 3.3201 3.66969 3.2777C3.81169 3.2337 3.95369 3.1937 4.09969 3.1597C4.24369 3.1217 4.39169 3.0937 4.53969 3.0637C5.13422 2.94657 5.73433 2.8598 6.33769 2.8037C6.63969 2.7757 6.94369 2.7557 7.24769 2.7317C7.55369 2.7177 7.85769 2.6957 8.16369 2.6877C8.46969 2.6797 8.77369 2.6657 9.07969 2.6617L9.99969 2.6557L10.9177 2.6637C11.2257 2.6677 11.5297 2.6857 11.8357 2.69371C12.1417 2.70171 12.4457 2.72571 12.7497 2.73971C13.0537 2.76571 13.3577 2.78771 13.6597 2.81571C14.2657 2.87771 14.8657 2.95971 15.4537 3.07971C15.6017 3.10971 15.7497 3.13771 15.8917 3.17771C16.0377 3.21171 16.1797 3.25171 16.3197 3.29571C16.4597 3.33971 16.5997 3.38771 16.7317 3.44371C16.8812 3.50014 17.0268 3.56628 17.1677 3.64171L17.1737 3.55971L17.1797 3.48171L17.1797 3.44171C16.953 3.28211 16.707 3.15175 16.4477 3.05371C16.3037 2.99571 16.1597 2.93971 16.0117 2.89371C15.8657 2.83971 15.7177 2.79771 15.5677 2.75571C14.9651 2.59345 14.3524 2.47118 13.7337 2.38971C12.4956 2.22986 11.2481 2.15369 9.99969 2.1617C8.75175 2.15697 7.50491 2.23648 6.26769 2.3997C5.65015 2.4832 5.03881 2.60747 4.43769 2.7717C4.28769 2.8157 4.13969 2.8577 3.99369 2.9097C3.84769 2.9577 3.70369 3.0137 3.56169 3.0717C3.29762 3.17135 3.04808 3.30588 2.81969 3.4717Z" fill="url(#paint23_linear_879_6193)"/>
<path opacity="0.44" d="M10.8259 1.62138C10.8259 1.55738 10.8219 1.49378 10.8181 1.43018C11.796 1.45194 12.771 1.54775 13.7345 1.71678C13.8223 1.73278 13.9097 1.75158 13.9971 1.76938C13.9933 1.94578 13.9875 2.12218 13.9771 2.29858C13.9755 2.30858 13.9741 2.31858 13.9725 2.32878C13.8683 2.31298 13.7643 2.29698 13.6599 2.28278C13.3579 2.24478 13.0539 2.21478 12.7499 2.18278C12.4459 2.16278 12.1419 2.13278 11.8359 2.12078C11.5299 2.10878 11.2259 2.08678 10.9179 2.08278L10.8207 2.08158C10.8285 1.92978 10.8317 1.77678 10.8259 1.62138Z" fill="url(#paint24_linear_879_6193)"/>
<path opacity="0.44" d="M10.8164 2.16211C11.7923 2.1774 12.7665 2.24972 13.734 2.37871C13.8096 2.38911 13.8846 2.40151 13.96 2.41271C13.9377 2.55204 13.9164 2.69151 13.8962 2.83111C13.8174 2.82231 13.739 2.81291 13.66 2.80471C13.358 2.77671 13.054 2.75471 12.75 2.72871C12.446 2.71471 12.142 2.69071 11.836 2.68271C11.53 2.67471 11.226 2.65671 10.918 2.65271L10.7632 2.65151C10.7892 2.49051 10.806 2.32731 10.8164 2.16211Z" fill="url(#paint25_linear_879_6193)"/>
<path d="M2.81969 3.37196L2.81969 3.48196L2.82369 3.54396C2.96134 3.4565 3.10581 3.38025 3.25569 3.31596C3.38987 3.24812 3.52814 3.18867 3.66969 3.13796C3.81169 3.08596 3.95369 3.03596 4.09969 2.99596C4.24369 2.94996 4.39169 2.91596 4.53969 2.87996C5.13241 2.74139 5.73278 2.63787 6.33769 2.56996C6.63969 2.53596 6.94369 2.50996 7.24769 2.48196C7.55369 2.46396 7.85769 2.43796 8.16369 2.42796C8.46969 2.42196 8.77369 2.40196 9.07969 2.39796L9.99969 2.38996L10.9177 2.39996C11.2257 2.40596 11.5297 2.42596 11.8357 2.43596C12.1417 2.44596 12.4457 2.47396 12.7497 2.49196C13.0537 2.52196 13.3577 2.54796 13.6597 2.58196C14.2636 2.65141 14.8627 2.75761 15.4537 2.89996C15.6017 2.93596 15.7497 2.96996 15.8917 3.01596C16.0377 3.05596 16.1797 3.10596 16.3197 3.15796C16.4597 3.20996 16.5997 3.26996 16.7317 3.33596C16.8852 3.39767 17.0331 3.47262 17.1737 3.55996L17.1797 3.48196L17.1797 3.33396C16.9581 3.14596 16.7118 2.98918 16.4477 2.86796C16.3037 2.79796 16.1597 2.73196 16.0117 2.67596C15.8657 2.61196 15.7177 2.56196 15.5677 2.50996C14.9685 2.3168 14.3553 2.1697 13.7337 2.06996C12.4983 1.87902 11.2497 1.78739 9.99969 1.79596C8.74995 1.79102 7.50187 1.88733 6.26769 2.08396C5.64745 2.18602 5.03573 2.33443 4.43769 2.52796C4.28769 2.58196 4.13969 2.63196 3.99369 2.69596C3.84769 2.75196 3.70369 2.81996 3.56169 2.88996C3.29207 3.0134 3.04207 3.1758 2.81969 3.37196Z" fill="#AA670F"/>
<path opacity="0.35" d="M10.7628 13.5488L11.1094 13.5488L11.1094 17.3488L10.7628 17.3488L10.7628 13.5488Z" fill="url(#paint26_linear_879_6193)"/>
<path d="M0.983579 6.92023C0.983579 8.40623 1.54158 11.0782 2.53958 12.0882C2.95058 12.4977 3.31359 12.9526 3.62158 13.4442C3.84958 13.3522 4.01758 13.2042 4.01758 13.0182C4.01758 12.1202 2.56758 11.2442 2.15358 10.4162C1.73958 9.58823 1.55558 8.34423 1.55558 6.71023C1.55558 6.20423 1.53158 5.56023 1.89958 5.56023C2.26758 5.56023 2.24558 6.15823 2.24558 6.61823C2.24558 7.07823 2.26558 7.77023 2.81958 7.77023C3.14558 7.77023 3.15358 7.69223 3.15358 7.68423L2.95558 5.19423C2.95558 5.19423 2.59158 4.38623 2.00758 4.38623C1.42358 4.38623 0.983579 5.43423 0.983579 6.92023Z" fill="url(#paint27_linear_879_6193)"/>
<path d="M2.56358 10.9999C2.56018 10.9905 2.55718 10.9811 2.55378 10.9717C3.13838 11.6317 4.01758 12.3189 4.01758 13.0187C4.01621 13.0933 3.98971 13.1652 3.94238 13.2229C3.65178 12.1599 2.99578 11.7577 2.56358 10.9999Z" fill="url(#paint28_linear_879_6193)"/>
<path d="M5.38916e-05 6.24998C0.0222568 7.0123 0.102488 7.77183 0.240053 8.52198C0.246447 8.52642 0.25313 8.53042 0.260054 8.53398C0.399541 8.5941 0.55203 8.61775 0.703176 8.60271C0.854322 8.58767 0.999157 8.53442 1.12405 8.44798C1.03757 7.94308 0.990757 7.43218 0.984054 6.91998C0.984054 5.43398 1.42405 4.38598 2.00805 4.38598C2.59205 4.38598 2.95605 5.19398 2.95605 5.19398L2.89805 4.45598C2.89805 4.45598 2.40606 3.62598 1.53206 3.62598C0.658055 3.62598 5.40385e-05 4.56998 5.38916e-05 6.24998Z" fill="url(#paint29_linear_879_6193)"/>
<path d="M1.67621 4.44302L1.65621 4.45922C1.57842 4.52689 1.51222 4.60681 1.46021 4.69582C1.38004 4.83612 1.31437 4.98422 1.26421 5.13782C1.16329 5.46914 1.09391 5.80925 1.05701 6.15362C1.02005 6.50797 1.00103 6.86396 1.00001 7.22022C0.99501 7.57842 1.01261 7.93782 1.02861 8.30122C1.03018 8.32711 1.02162 8.3526 1.00475 8.3723C0.987885 8.392 0.964021 8.40438 0.938199 8.40682C0.912376 8.40926 0.886616 8.40157 0.866356 8.38537C0.846096 8.36918 0.832921 8.34575 0.829611 8.32002C0.777411 7.96002 0.723211 7.59862 0.691811 7.23322C0.656606 6.86603 0.639985 6.49729 0.642011 6.12842C0.644635 5.74954 0.683344 5.37177 0.757612 5.00022C0.800761 4.80396 0.86389 4.61263 0.946011 4.42922C1.03695 4.1938 1.2017 3.99416 1.41561 3.86022C1.4925 3.82615 1.57978 3.82399 1.65826 3.85421C1.73675 3.88444 1.80003 3.94458 1.83421 4.02142C1.85053 4.05795 1.85945 4.09735 1.86044 4.13734C1.86144 4.17734 1.85449 4.21713 1.84001 4.25442C1.80236 4.33021 1.74598 4.39513 1.67621 4.44302Z" fill="url(#paint30_linear_879_6193)"/>
<path d="M20 6.24998C20 7.92998 19.2506 11.07 19.158 11.476C18.9886 12.2188 19.182 13.548 16.926 13.548C16.488 13.548 15.982 13.34 15.982 13.018C15.982 12.12 17.432 11.244 17.846 10.416C18.26 9.58798 18.444 8.34398 18.444 6.70998C18.444 6.20398 18.468 5.55998 18.1 5.55998C17.732 5.55998 17.754 6.15798 17.754 6.61798C17.754 7.07798 17.734 7.76998 17.18 7.76998C16.854 7.76998 16.846 7.69198 16.846 7.68398L17.102 4.45598C17.102 4.45598 17.594 3.62598 18.468 3.62598C19.342 3.62598 20 4.56998 20 6.24998Z" fill="url(#paint31_linear_879_6193)"/>
<path d="M19.0156 6.91974C19.0156 8.40574 18.4576 11.0777 17.4596 12.0877C17.0486 12.4972 16.6856 12.9521 16.3776 13.4437C16.1496 13.3517 15.9816 13.2037 15.9816 13.0177C15.9816 12.1197 17.4316 11.2437 17.8456 10.4157C18.2596 9.58774 18.4436 8.34374 18.4436 6.70974C18.4436 6.20374 18.4676 5.55974 18.0996 5.55974C17.7316 5.55974 17.7536 6.15774 17.7536 6.61774C17.7536 7.07774 17.7336 7.76974 17.1796 7.76974C16.8536 7.76974 16.8456 7.69174 16.8456 7.68374L17.0436 5.19374C17.0436 5.19374 17.4076 4.38574 17.9916 4.38574C18.5756 4.38574 19.0156 5.43374 19.0156 6.91974Z" fill="url(#paint32_linear_879_6193)"/>
<path d="M20 6.24998C19.9778 7.0123 19.8976 7.77183 19.76 8.52198C19.7536 8.52642 19.7469 8.53042 19.74 8.53398C19.6005 8.5941 19.448 8.61775 19.2969 8.60271C19.1457 8.58767 19.0009 8.53442 18.876 8.44798C18.9625 7.94308 19.0093 7.43218 19.016 6.91998C19.016 5.43398 18.576 4.38598 17.992 4.38598C17.408 4.38598 17.044 5.19398 17.044 5.19398L17.102 4.45598C17.102 4.45598 17.594 3.62598 18.468 3.62598C19.342 3.62598 20 4.56998 20 6.24998Z" fill="url(#paint33_linear_879_6193)"/>
<path d="M18.327 4.43899C18.3052 4.42819 18.311 4.42999 18.3124 4.43079C18.3157 4.43165 18.3187 4.43322 18.3212 4.4354C18.3312 4.44108 18.3406 4.44778 18.3492 4.45539C18.3731 4.4743 18.3949 4.49569 18.4142 4.51919C18.4621 4.57319 18.504 4.6322 18.5392 4.6952C18.6194 4.83549 18.6851 4.98359 18.7352 5.13719C18.8361 5.46851 18.9055 5.80862 18.9424 6.153C18.9796 6.50753 18.9988 6.86372 19 7.22019C19.005 7.57839 18.9874 7.9378 18.9716 8.298L18.9716 8.3002C18.9691 8.32672 18.9773 8.35314 18.9943 8.37366C19.0112 8.39418 19.0357 8.4071 19.0622 8.4096C19.0887 8.41209 19.1152 8.40394 19.1357 8.38695C19.1562 8.36996 19.1691 8.34552 19.1716 8.319C19.2238 7.959 19.278 7.5976 19.3094 7.2322C19.3446 6.865 19.3612 6.49627 19.3592 6.1274C19.3561 5.74881 19.317 5.37137 19.2424 5.0002C19.1993 4.80393 19.1361 4.6126 19.054 4.4292C19.0099 4.32941 18.9556 4.23444 18.892 4.1458C18.8578 4.09631 18.8194 4.04988 18.7772 4.007C18.7541 3.98244 18.7294 3.95946 18.7032 3.9382C18.6887 3.92538 18.6734 3.91362 18.6572 3.90299C18.6343 3.88639 18.6099 3.87193 18.5844 3.85979C18.5075 3.82566 18.4202 3.82348 18.3417 3.85373C18.2631 3.88398 18.1998 3.94418 18.1657 4.02109C18.1316 4.09801 18.1294 4.18533 18.1596 4.26385C18.1899 4.34237 18.2501 4.40566 18.327 4.43979L18.327 4.43899Z" fill="url(#paint34_linear_879_6193)"/>
</g>
<defs>
<radialGradient id="paint0_radial_879_6193" cx="0" cy="0" r="1" gradientUnits="userSpaceOnUse" gradientTransform="translate(9.94799 18.747) rotate(-180) scale(5.3394 5.3394)">
<stop offset="0.324" stop-color="#F79F28"/>
<stop offset="0.483" stop-color="#F5951F"/>
<stop offset="0.681" stop-color="#F1820F"/>
<stop offset="0.797" stop-color="#F07D0D"/>
<stop offset="0.936" stop-color="#EC6E08"/>
<stop offset="1" stop-color="#E96504"/>
</radialGradient>
<linearGradient id="paint1_linear_879_6193" x1="12.5" y1="17.6486" x2="7.5" y2="17.6486" gradientUnits="userSpaceOnUse">
<stop stop-color="#C05300"/>
<stop offset="1" stop-color="#BE5100"/>
</linearGradient>
<linearGradient id="paint2_linear_879_6193" x1="12.42" y1="17.4057" x2="7.57998" y2="17.4057" gradientUnits="userSpaceOnUse">
<stop stop-color="#FED19E"/>
<stop offset="0.23" stop-color="#FDCF9A"/>
<stop offset="0.47" stop-color="#FBC78D"/>
<stop offset="0.715" stop-color="#F8BB78"/>
<stop offset="0.961" stop-color="#F4AA5B"/>
<stop offset="1" stop-color="#F3A756"/>
</linearGradient>
<linearGradient id="paint3_linear_879_6193" x1="10" y1="17.9775" x2="10" y2="19.9115" gradientUnits="userSpaceOnUse">
<stop stop-color="#F28718"/>
<stop offset="0.319" stop-color="#F08517"/>
<stop offset="0.434" stop-color="#E97E15"/>
<stop offset="0.515" stop-color="#DE7310"/>
<stop offset="0.528" stop-color="#DB700F"/>
<stop offset="1" stop-color="#B35006"/>
</linearGradient>
<linearGradient id="paint4_linear_879_6193" x1="14.8225" y1="18.0937" x2="5.02346" y2="18.0937" gradientUnits="userSpaceOnUse">
<stop stop-color="#FED19E" stop-opacity="0.2"/>
<stop offset="0.054" stop-color="#FED09D" stop-opacity="0.247"/>
<stop offset="0.151" stop-color="#FDCF9A" stop-opacity="0.372"/>
<stop offset="0.28" stop-color="#FCCC96" stop-opacity="0.575"/>
<stop offset="0.435" stop-color="#FBC98F" stop-opacity="0.852"/>
<stop offset="0.511" stop-color="#FAC78C"/>
<stop offset="0.564" stop-color="#FAC589" stop-opacity="0.95"/>
<stop offset="0.66" stop-color="#F8C080" stop-opacity="0.817"/>
<stop offset="0.79" stop-color="#F7B771" stop-opacity="0.602"/>
<stop offset="0.946" stop-color="#F4AB5D" stop-opacity="0.309"/>
<stop offset="1" stop-color="#F3A756" stop-opacity="0.2"/>
</linearGradient>
<radialGradient id="paint5_radial_879_6193" cx="0" cy="0" r="1" gradientUnits="userSpaceOnUse" gradientTransform="translate(9.79084 5.57855) rotate(179.028) scale(6.23 7.22057)">
<stop stop-color="#F8A129"/>
<stop offset="0.317" stop-color="#F79E27"/>
<stop offset="0.571" stop-color="#F59421"/>
<stop offset="0.803" stop-color="#F18317"/>
<stop offset="1" stop-color="#EC6E0A"/>
</radialGradient>
<linearGradient id="paint6_linear_879_6193" x1="17.1797" y1="1.68087" x2="2.81969" y2="1.68087" gradientUnits="userSpaceOnUse">
<stop stop-color="#F6961E"/>
<stop offset="0.012" stop-color="#F6971F"/>
<stop offset="0.246" stop-color="#F8A229"/>
<stop offset="0.511" stop-color="#F9A52C"/>
<stop offset="0.844" stop-color="#F79D24"/>
<stop offset="1" stop-color="#F6971F"/>
</linearGradient>
<linearGradient id="paint7_linear_879_6193" x1="11.6755" y1="11.2588" x2="13.5307" y2="8.09199" gradientUnits="userSpaceOnUse">
<stop stop-color="#EA5F00" stop-opacity="0.7"/>
<stop offset="0.191" stop-color="#EA6000" stop-opacity="0.686"/>
<stop offset="0.347" stop-color="#EB6302" stop-opacity="0.643"/>
<stop offset="0.492" stop-color="#EC6804" stop-opacity="0.569"/>
<stop offset="0.629" stop-color="#ED6E07" stop-opacity="0.466"/>
<stop offset="0.761" stop-color="#EF770B" stop-opacity="0.332"/>
<stop offset="0.888" stop-color="#F28210" stop-opacity="0.171"/>
<stop offset="1" stop-color="#F48D15" stop-opacity="0"/>
</linearGradient>
<linearGradient id="paint8_linear_879_6193" x1="16.2957" y1="7.06899" x2="7.27829" y2="6.76039" gradientUnits="userSpaceOnUse">
<stop stop-color="#F38B14"/>
<stop offset="0.039" stop-color="#F38B14" stop-opacity="0.911"/>
<stop offset="0.14" stop-color="#F38A13" stop-opacity="0.7"/>
<stop offset="0.247" stop-color="#F38A13" stop-opacity="0.512"/>
<stop offset="0.355" stop-color="#F38913" stop-opacity="0.354"/>
<stop offset="0.467" stop-color="#F38912" stop-opacity="0.226"/>
<stop offset="0.584" stop-color="#F38812" stop-opacity="0.126"/>
<stop offset="0.706" stop-color="#F38812" stop-opacity="0.055"/>
<stop offset="0.839" stop-color="#F38812" stop-opacity="0.013"/>
<stop offset="1" stop-color="#F38812" stop-opacity="0"/>
</linearGradient>
<linearGradient id="paint9_linear_879_6193" x1="1.32678" y1="3.34938" x2="2.41218" y2="13.6462" gradientUnits="userSpaceOnUse">
<stop stop-color="#FAAD3E"/>
<stop offset="0.259" stop-color="#F9AA3A"/>
<stop offset="0.53" stop-color="#F7A02D"/>
<stop offset="0.806" stop-color="#F39118"/>
<stop offset="1" stop-color="#F08205"/>
</linearGradient>
<linearGradient id="paint10_linear_879_6193" x1="13.8954" y1="10.2411" x2="14.146" y2="5.63769" gradientUnits="userSpaceOnUse">
<stop stop-color="#C15600"/>
<stop offset="0.126" stop-color="#CC6104"/>
<stop offset="0.383" stop-color="#DE710A"/>
<stop offset="0.661" stop-color="#E87B0E"/>
<stop offset="1" stop-color="#EB7E0F"/>
</linearGradient>
<radialGradient id="paint11_radial_879_6193" cx="0" cy="0" r="1" gradientUnits="userSpaceOnUse" gradientTransform="translate(10.0652 12.1924) rotate(-180) scale(2.6622 2.6622)">
<stop stop-color="#CB5E04"/>
<stop offset="0.184" stop-color="#CF6105" stop-opacity="0.861"/>
<stop offset="0.583" stop-color="#D96A08" stop-opacity="0.504"/>
<stop offset="1" stop-color="#E4740C" stop-opacity="0.1"/>
</radialGradient>
<radialGradient id="paint12_radial_879_6193" cx="0" cy="0" r="1" gradientUnits="userSpaceOnUse" gradientTransform="translate(12.8406 0.612694) rotate(-180) scale(9.716 9.716)">
<stop stop-color="#FCC864"/>
<stop offset="0.165" stop-color="#FABF5A" stop-opacity="0.89"/>
<stop offset="0.522" stop-color="#F7A941" stop-opacity="0.61"/>
<stop offset="1" stop-color="#F1891C" stop-opacity="0.2"/>
</radialGradient>
<linearGradient id="paint13_linear_879_6193" x1="12.8195" y1="0.730534" x2="12.3291" y2="9.78533" gradientUnits="userSpaceOnUse">
<stop stop-color="#FFF3CD"/>
<stop offset="0.132" stop-color="#FFF2CA" stop-opacity="0.984"/>
<stop offset="0.27" stop-color="#FEEDC2" stop-opacity="0.936"/>
<stop offset="0.412" stop-color="#FEE6B5" stop-opacity="0.856"/>
<stop offset="0.555" stop-color="#FCDCA2" stop-opacity="0.743"/>
<stop offset="0.699" stop-color="#FBCE89" stop-opacity="0.599"/>
<stop offset="0.845" stop-color="#F9BE6B" stop-opacity="0.421"/>
<stop offset="0.99" stop-color="#F7AB49" stop-opacity="0.216"/>
<stop offset="1" stop-color="#F7AA46" stop-opacity="0.2"/>
</linearGradient>
<linearGradient id="paint14_linear_879_6193" x1="4.05096" y1="3.34287" x2="5.04676" y2="10.0237" gradientUnits="userSpaceOnUse">
<stop stop-color="#F6971F"/>
<stop offset="0.406" stop-color="#F5931C"/>
<stop offset="0.829" stop-color="#F38612"/>
<stop offset="1" stop-color="#F17F0C"/>
</linearGradient>
<linearGradient id="paint15_linear_879_6193" x1="-408.638" y1="221.862" x2="-261.598" y2="637.248" gradientUnits="userSpaceOnUse">
<stop stop-color="#F6971F"/>
<stop offset="0.406" stop-color="#F5931C"/>
<stop offset="0.829" stop-color="#F38612"/>
<stop offset="1" stop-color="#F17F0C"/>
</linearGradient>
<radialGradient id="paint16_radial_879_6193" cx="0" cy="0" r="1" gradientUnits="userSpaceOnUse" gradientTransform="translate(9.9519 13.4669) rotate(-180) scale(5.8862 5.8862)">
<stop stop-color="#FE9A0B"/>
<stop offset="0.119" stop-color="#FE9A0B" stop-opacity="0.983"/>
<stop offset="0.244" stop-color="#FE9A0B" stop-opacity="0.934"/>
<stop offset="0.372" stop-color="#FE9A0B" stop-opacity="0.851"/>
<stop offset="0.502" stop-color="#FE9A0B" stop-opacity="0.736"/>
<stop offset="0.632" stop-color="#FE9A0B" stop-opacity="0.587"/>
<stop offset="0.764" stop-color="#FD990A" stop-opacity="0.404"/>
<stop offset="0.895" stop-color="#FD990A" stop-opacity="0.193"/>
<stop offset="1" stop-color="#FD990A" stop-opacity="0"/>
</radialGradient>
<linearGradient id="paint17_linear_879_6193" x1="15.8786" y1="0.981867" x2="15.2982" y2="8.57267" gradientUnits="userSpaceOnUse">
<stop stop-color="#FAC864"/>
<stop offset="0.12" stop-color="#FAC763" stop-opacity="0.983"/>
<stop offset="0.247" stop-color="#F9C460" stop-opacity="0.933"/>
<stop offset="0.375" stop-color="#F9BF5A" stop-opacity="0.849"/>
<stop offset="0.506" stop-color="#F8B853" stop-opacity="0.731"/>
<stop offset="0.638" stop-color="#F6B049" stop-opacity="0.58"/>
<stop offset="0.771" stop-color="#F5A53D" stop-opacity="0.395"/>
<stop offset="0.902" stop-color="#F3982F" stop-opacity="0.18"/>
<stop offset="1" stop-color="#F18E23" stop-opacity="0"/>
</linearGradient>
<radialGradient id="paint18_radial_879_6193" cx="0" cy="0" r="1" gradientUnits="userSpaceOnUse" gradientTransform="translate(3.26919 5.16165) rotate(-180) scale(4.47 4.47)">
<stop stop-color="white" stop-opacity="0.4"/>
<stop offset="1" stop-color="#F9A632" stop-opacity="0.5"/>
</radialGradient>
<radialGradient id="paint19_radial_879_6193" cx="0" cy="0" r="1" gradientUnits="userSpaceOnUse" gradientTransform="translate(3.98802 0.565262) rotate(-180) scale(6.51901 6.519)">
<stop stop-color="white" stop-opacity="0.4"/>
<stop offset="1" stop-color="#FBD493"/>
</radialGradient>
<linearGradient id="paint20_linear_879_6193" x1="4.15778" y1="7.52089" x2="6.62718" y2="12.8635" gradientUnits="userSpaceOnUse">
<stop stop-color="#C05300"/>
<stop offset="1" stop-color="#EA8621"/>
</linearGradient>
<linearGradient id="paint21_linear_879_6193" x1="4.50564" y1="1.18957" x2="6.67704" y2="12.6362" gradientUnits="userSpaceOnUse">
<stop stop-color="#FEE080"/>
<stop offset="0.056" stop-color="#FDD777"/>
<stop offset="0.191" stop-color="#FBC865"/>
<stop offset="0.338" stop-color="#FABF5B"/>
<stop offset="0.517" stop-color="#FABC58"/>
<stop offset="0.603" stop-color="#FABC58" stop-opacity="0.987"/>
<stop offset="0.673" stop-color="#FABB57" stop-opacity="0.947"/>
<stop offset="0.737" stop-color="#F9B956" stop-opacity="0.88"/>
<stop offset="0.797" stop-color="#F9B754" stop-opacity="0.785"/>
<stop offset="0.854" stop-color="#F8B452" stop-opacity="0.663"/>
<stop offset="0.91" stop-color="#F7B04F" stop-opacity="0.512"/>
<stop offset="0.964" stop-color="#F6AB4C" stop-opacity="0.337"/>
<stop offset="1" stop-color="#F5A84A" stop-opacity="0.2"/>
</linearGradient>
<linearGradient id="paint22_linear_879_6193" x1="17.1797" y1="2.40277" x2="2.81969" y2="2.40277" gradientUnits="userSpaceOnUse">
<stop stop-color="#FBC864"/>
<stop offset="0.246" stop-color="#FCCC68"/>
<stop offset="0.503" stop-color="#FED775"/>
<stop offset="0.522" stop-color="#FED876"/>
<stop offset="0.83" stop-color="#FEE181"/>
<stop offset="1" stop-color="#FEE78A"/>
</linearGradient>
<linearGradient id="paint23_linear_879_6193" x1="17.1797" y1="2.90171" x2="2.81969" y2="2.9017" gradientUnits="userSpaceOnUse">
<stop stop-color="#F6AB3C"/>
<stop offset="0.044" stop-color="#F6AD40"/>
<stop offset="0.09" stop-color="#F7B34D"/>
<stop offset="0.137" stop-color="#F8BC62"/>
<stop offset="0.185" stop-color="#FACA7F"/>
<stop offset="0.232" stop-color="#FCDBA4"/>
<stop offset="0.267" stop-color="#FEE9C4"/>
<stop offset="0.333" stop-color="#FEE4B8"/>
<stop offset="0.452" stop-color="#FDD69A"/>
<stop offset="0.609" stop-color="#FBC168"/>
<stop offset="0.723" stop-color="#FAAF40"/>
<stop offset="1" stop-color="#FAAF40"/>
</linearGradient>
<linearGradient id="paint24_linear_879_6193" x1="-30.8268" y1="9.87431" x2="-259.079" y2="9.87429" gradientUnits="userSpaceOnUse">
<stop stop-color="#FFF3CD"/>
<stop offset="0.132" stop-color="#FFF2CA" stop-opacity="0.984"/>
<stop offset="0.27" stop-color="#FEEDC2" stop-opacity="0.936"/>
<stop offset="0.412" stop-color="#FEE6B5" stop-opacity="0.856"/>
<stop offset="0.555" stop-color="#FCDCA2" stop-opacity="0.743"/>
<stop offset="0.699" stop-color="#FBCE89" stop-opacity="0.599"/>
<stop offset="0.845" stop-color="#F9BE6B" stop-opacity="0.421"/>
<stop offset="0.99" stop-color="#F7AB49" stop-opacity="0.216"/>
<stop offset="1" stop-color="#F7AA46" stop-opacity="0.2"/>
</linearGradient>
<linearGradient id="paint25_linear_879_6193" x1="-31.1149" y1="10.5126" x2="-260.645" y2="10.5125" gradientUnits="userSpaceOnUse">
<stop stop-color="#FFF3CD"/>
<stop offset="0.132" stop-color="#FFF2CA" stop-opacity="0.984"/>
<stop offset="0.27" stop-color="#FEEDC2" stop-opacity="0.936"/>
<stop offset="0.412" stop-color="#FEE6B5" stop-opacity="0.856"/>
<stop offset="0.555" stop-color="#FCDCA2" stop-opacity="0.743"/>
<stop offset="0.699" stop-color="#FBCE89" stop-opacity="0.599"/>
<stop offset="0.845" stop-color="#F9BE6B" stop-opacity="0.421"/>
<stop offset="0.99" stop-color="#F7AB49" stop-opacity="0.216"/>
<stop offset="1" stop-color="#F7AA46" stop-opacity="0.2"/>
</linearGradient>
<linearGradient id="paint26_linear_879_6193" x1="10.936" y1="13.4974" x2="10.936" y2="17.1552" gradientUnits="userSpaceOnUse">
<stop stop-color="#F7AA46" stop-opacity="0.2"/>
<stop offset="0.503" stop-color="#FFF3CD"/>
<stop offset="0.568" stop-color="#FFF2CA" stop-opacity="0.984"/>
<stop offset="0.637" stop-color="#FEEDC2" stop-opacity="0.936"/>
<stop offset="0.707" stop-color="#FEE6B5" stop-opacity="0.856"/>
<stop offset="0.779" stop-color="#FCDCA2" stop-opacity="0.743"/>
<stop offset="0.851" stop-color="#FBCE89" stop-opacity="0.599"/>
<stop offset="0.923" stop-color="#F9BE6B" stop-opacity="0.421"/>
<stop offset="0.995" stop-color="#F7AB49" stop-opacity="0.216"/>
<stop offset="1" stop-color="#F7AA46" stop-opacity="0.2"/>
</linearGradient>
<linearGradient id="paint27_linear_879_6193" x1="-276.285" y1="222.177" x2="-90.6331" y2="474.574" gradientUnits="userSpaceOnUse">
<stop stop-color="#C05300"/>
<stop offset="1" stop-color="#BE5100"/>
</linearGradient>
<linearGradient id="paint28_linear_879_6193" x1="1.52818" y1="4.80728" x2="3.52298" y2="12.9037" gradientUnits="userSpaceOnUse">
<stop stop-color="#C05300"/>
<stop offset="0.557" stop-color="#C45501"/>
<stop offset="1" stop-color="#CD5903"/>
</linearGradient>
<linearGradient id="paint29_linear_879_6193" x1="1.52625" y1="4.23438" x2="1.37945" y2="8.60538" gradientUnits="userSpaceOnUse">
<stop stop-color="#FEBD19"/>
<stop offset="0.093" stop-color="#FDBB18" stop-opacity="0.959"/>
<stop offset="0.253" stop-color="#FCB516" stop-opacity="0.849"/>
<stop offset="0.463" stop-color="#FAAB12" stop-opacity="0.669"/>
<stop offset="0.712" stop-color="#F79D0D" stop-opacity="0.421"/>
<stop offset="0.993" stop-color="#F38B06" stop-opacity="0.108"/>
<stop offset="1" stop-color="#F38B06" stop-opacity="0.1"/>
</linearGradient>
<linearGradient id="paint30_linear_879_6193" x1="1.66101" y1="3.71762" x2="0.925207" y2="6.53282" gradientUnits="userSpaceOnUse">
<stop stop-color="#FFEBA8"/>
<stop offset="0.164" stop-color="#FFE9A4"/>
<stop offset="0.335" stop-color="#FEE397"/>
<stop offset="0.51" stop-color="#FDD882"/>
<stop offset="0.688" stop-color="#FCCA65"/>
<stop offset="0.865" stop-color="#FAB840"/>
<stop offset="1" stop-color="#F9A71E"/>
</linearGradient>
<linearGradient id="paint31_linear_879_6193" x1="-71.558" y1="169.79" x2="-197.472" y2="653.514" gradientUnits="userSpaceOnUse">
<stop stop-color="#FAAD3E"/>
<stop offset="0.259" stop-color="#F9AA3A"/>
<stop offset="0.53" stop-color="#F7A02D"/>
<stop offset="0.806" stop-color="#F39118"/>
<stop offset="1" stop-color="#F08205"/>
</linearGradient>
<linearGradient id="paint32_linear_879_6193" x1="-50.2837" y1="222.176" x2="-235.935" y2="474.574" gradientUnits="userSpaceOnUse">
<stop stop-color="#C05300"/>
<stop offset="1" stop-color="#BE5100"/>
</linearGradient>
<linearGradient id="paint33_linear_879_6193" x1="18.4738" y1="4.23438" x2="18.6206" y2="8.60538" gradientUnits="userSpaceOnUse">
<stop stop-color="#FEBD19"/>
<stop offset="0.159" stop-color="#FDB616" stop-opacity="0.88"/>
<stop offset="0.507" stop-color="#F9A510" stop-opacity="0.572"/>
<stop offset="1" stop-color="#F38B06" stop-opacity="0.1"/>
</linearGradient>
<linearGradient id="paint34_linear_879_6193" x1="-231.129" y1="88.9148" x2="-196.719" y2="124.031" gradientUnits="userSpaceOnUse">
<stop stop-color="#FFEBA8"/>
<stop offset="0.164" stop-color="#FFE9A4"/>
<stop offset="0.335" stop-color="#FEE397"/>
<stop offset="0.51" stop-color="#FDD882"/>
<stop offset="0.688" stop-color="#FCCA65"/>
<stop offset="0.865" stop-color="#FAB840"/>
<stop offset="1" stop-color="#F9A71E"/>
</linearGradient>
<clipPath id="clip0_879_6193">
<rect width="20" height="20" fill="white" transform="matrix(-1 -8.74228e-08 -8.74228e-08 1 20 0)"/>
</clipPath>
</defs>
</svg>
