<svg width="17" height="16" viewBox="0 0 17 16" fill="none" xmlns="http://www.w3.org/2000/svg">
<mask id="mask0_879_29940" style="mask-type:alpha" maskUnits="userSpaceOnUse" x="0" y="0" width="17" height="16">
<path d="M6.47416 12.6073L6.84561 12.1361L6.47416 12.6073ZM8.49967 3.66709L8.06738 4.08317C8.18049 4.20069 8.33657 4.26709 8.49967 4.26709C8.66278 4.26709 8.81886 4.20069 8.93197 4.08317L8.49967 3.66709ZM10.5252 12.6073L10.8966 13.0784L10.5252 12.6073ZM6.84561 12.1361C5.82924 11.3348 4.73544 10.5651 3.86664 9.58678C3.0184 8.63164 2.43301 7.52512 2.43301 6.0914H1.23301C1.23301 7.89963 1.98742 9.27789 2.96938 10.3836C3.93077 11.4662 5.15755 12.3334 6.10271 13.0784L6.84561 12.1361ZM2.43301 6.0914C2.43301 4.6949 3.22196 3.52899 4.29082 3.04041C5.32185 2.56912 6.72099 2.68432 8.06738 4.08317L8.93197 3.25101C7.27846 1.53308 5.34427 1.23945 3.79194 1.94902C2.27744 2.64131 1.23301 4.24594 1.23301 6.0914H2.43301ZM6.10271 13.0784C6.44328 13.3469 6.81525 13.6384 7.19377 13.8596C7.57209 14.0807 8.01402 14.2667 8.49967 14.2667V13.0667C8.31866 13.0667 8.09392 12.9958 7.7992 12.8235C7.50467 12.6514 7.19722 12.4132 6.84561 12.1361L6.10271 13.0784ZM10.8966 13.0784C11.8418 12.3334 13.0686 11.4662 14.03 10.3836C15.0119 9.27789 15.7663 7.89963 15.7663 6.0914H14.5663C14.5663 7.52512 13.9809 8.63164 13.1327 9.58678C12.2639 10.5651 11.1701 11.3348 10.1537 12.1361L10.8966 13.0784ZM15.7663 6.0914C15.7663 4.24594 14.7219 2.64131 13.2074 1.94902C11.6551 1.23945 9.72089 1.53308 8.06738 3.25101L8.93197 4.08317C10.2784 2.68432 11.6775 2.56912 12.7085 3.04041C13.7774 3.52899 14.5663 4.6949 14.5663 6.0914H15.7663ZM10.1537 12.1361C9.80213 12.4132 9.49467 12.6514 9.20015 12.8235C8.90543 12.9958 8.68069 13.0667 8.49967 13.0667V14.2667C8.98533 14.2667 9.42725 14.0807 9.80558 13.8596C10.1841 13.6384 10.5561 13.3469 10.8966 13.0784L10.1537 12.1361Z" fill="white"/>
</mask>
<g mask="url(#mask0_879_29940)">
<rect x="0.5" width="16" height="16" fill="white"/>
</g>
</svg>
