<svg width="184" height="28" viewBox="0 0 184 28" fill="none" xmlns="http://www.w3.org/2000/svg">
<path fill-rule="evenodd" clip-rule="evenodd" d="M148.458 9.52436C148.395 4.54599 144.588 0.482301 139.747 0.0424177C139.56 0.0144886 139.366 0.000523995 139.179 0.000523995H117.812C115.565 0.000523995 113.72 1.85781 113.72 4.12007V23.8101C113.72 26.0724 115.565 27.9297 117.812 27.9297H138.145C138.242 27.9297 138.34 27.9227 138.437 27.9227C138.582 27.9227 138.728 27.9297 138.874 27.9297C144.165 27.9297 148.465 23.6076 148.465 18.2732C148.465 18.1335 148.458 17.9939 148.451 17.8542C148.458 17.7634 148.465 17.6727 148.465 17.5819V9.63607C148.465 9.60116 148.458 9.55927 148.458 9.52436ZM91.3273 1.8229L77.6307 21.5199C76.3339 23.3772 76.7916 25.9606 78.6293 27.2594C80.4741 28.5581 83.04 28.1042 84.3368 26.2469L86.1746 23.5937H103.235L105.079 26.2469C106.369 28.1042 108.935 28.5581 110.78 27.2594C112.625 25.9606 113.075 23.3772 111.786 21.5199L98.0889 1.8229C97.2775 0.656859 95.9668 0.0494 94.6492 0.0703468C93.3731 0.0843114 92.111 0.69177 91.3273 1.8229ZM91.2788 16.2623L94.7046 11.3328L98.1375 16.2623H91.2788ZM162.799 1.75308L149.103 21.4501C147.813 23.3074 148.264 25.8908 150.108 27.1895C151.953 28.4882 154.519 28.0344 155.809 26.1771L157.654 23.5238H174.714L176.551 26.1771C177.848 28.0344 180.414 28.4882 182.259 27.1895C184.104 25.8908 184.554 23.3074 183.264 21.4501L169.568 1.75308C168.756 0.587036 167.446 -0.0204229 166.128 0.000523995C164.845 0.0144886 163.59 0.621947 162.799 1.75308ZM162.751 16.1924L166.184 11.2629L169.616 16.1924H162.751ZM40.05 1.75308L26.3534 21.4501C25.0635 23.3074 25.5143 25.8908 27.359 27.1895C29.2037 28.4882 31.7697 28.0344 33.0596 26.1771L34.9043 23.5238H51.9574L53.8021 26.1771C55.092 28.0344 57.658 28.4882 59.5027 27.1895C61.3474 25.8908 61.8051 23.3074 60.5082 21.4501L46.8116 1.75308C46.0072 0.587036 44.6965 -0.0204229 43.3788 0.000523995C42.0958 0.0144886 40.8406 0.621947 40.05 1.75308ZM40.0015 16.1924L43.4343 11.2629L46.8602 16.1924H40.0015ZM72.4711 26.2469L86.1677 6.5499C87.4576 4.69262 87.0068 2.10917 85.1621 0.810469C83.3174 -0.488236 80.7515 -0.0343874 79.4615 1.8229L69.0868 16.7371L58.719 1.8229C57.4291 -0.0343874 54.8632 -0.488236 53.0184 0.810469C51.1737 2.10917 50.723 4.69262 52.0129 6.5499L65.7095 26.2469C66.5209 27.413 67.8246 28.0204 69.1423 27.9995C70.4253 27.9855 71.6874 27.3781 72.4711 26.2469ZM21.2007 26.1771L34.8973 6.48008C36.1872 4.6228 35.7365 2.03935 33.8918 0.740646C32.0471 -0.558059 29.4811 -0.10421 28.1912 1.75308L17.8165 16.6672L7.44866 1.75308C6.15182 -0.10421 3.58587 -0.558059 1.74117 0.740646C-0.103539 2.03935 -0.554314 4.6228 0.735594 6.48008L14.4322 26.1771C15.2436 27.3431 16.5543 27.9506 17.8719 27.9297C19.1549 27.9157 20.4101 27.3082 21.2007 26.1771ZM138.991 6.98281H120.655V20.9474H138.048L138.347 20.9264L138.742 20.9474H138.874C140.337 20.9474 141.53 19.7534 141.53 18.2732C141.53 18.2313 141.523 18.1964 141.523 18.1545L141.509 17.7704L141.53 17.4842V9.67797C141.523 9.65702 141.523 9.63607 141.523 9.62211C141.509 8.26056 140.469 7.11547 139.123 6.99677L138.991 6.98281Z" fill="#FE284A"/>
</svg>
