<svg width="80" height="17" viewBox="0 0 80 17" fill="none" xmlns="http://www.w3.org/2000/svg">
<path d="M7.55163 1.66826C7.73504 1.29663 8.26496 1.29664 8.44837 1.66826L10.2348 5.28798C10.3076 5.43555 10.4484 5.53783 10.6113 5.5615L14.6059 6.14195C15.016 6.20154 15.1797 6.70552 14.883 6.99479L11.9925 9.81235C11.8746 9.92722 11.8208 10.0927 11.8487 10.2549L12.531 14.2334C12.6011 14.6418 12.1724 14.9533 11.8055 14.7605L8.23267 12.8821C8.08701 12.8055 7.91299 12.8055 7.76733 12.8821L4.19445 14.7605C3.82764 14.9533 3.39892 14.6418 3.46898 14.2334L4.15134 10.2549C4.17916 10.0927 4.12538 9.92722 4.00754 9.81235L1.11702 6.99479C0.820263 6.70552 0.984019 6.20154 1.39413 6.14195L5.38873 5.5615C5.55158 5.53783 5.69236 5.43555 5.76519 5.28798L7.55163 1.66826Z" fill="url(#paint0_linear_1661_18107)"/>
<path d="M23.5516 1.66826C23.735 1.29663 24.265 1.29664 24.4484 1.66826L26.2348 5.28798C26.3076 5.43555 26.4484 5.53783 26.6113 5.5615L30.6059 6.14195C31.016 6.20154 31.1797 6.70552 30.883 6.99479L27.9925 9.81235C27.8746 9.92722 27.8208 10.0927 27.8487 10.2549L28.531 14.2334C28.6011 14.6418 28.1724 14.9533 27.8055 14.7605L24.2327 12.8821C24.087 12.8055 23.913 12.8055 23.7673 12.8821L20.1945 14.7605C19.8276 14.9533 19.3989 14.6418 19.469 14.2334L20.1513 10.2549C20.1792 10.0927 20.1254 9.92722 20.0075 9.81235L17.117 6.99479C16.8203 6.70552 16.984 6.20154 17.3941 6.14195L21.3887 5.5615C21.5516 5.53783 21.6924 5.43555 21.7652 5.28798L23.5516 1.66826Z" fill="url(#paint1_linear_1661_18107)"/>
<path d="M39.5516 1.66826C39.735 1.29663 40.265 1.29664 40.4484 1.66826L42.2348 5.28798C42.3076 5.43555 42.4484 5.53783 42.6113 5.5615L46.6059 6.14195C47.016 6.20154 47.1797 6.70552 46.883 6.99479L43.9925 9.81235C43.8746 9.92722 43.8208 10.0927 43.8487 10.2549L44.531 14.2334C44.6011 14.6418 44.1724 14.9533 43.8055 14.7605L40.2327 12.8821C40.087 12.8055 39.913 12.8055 39.7673 12.8821L36.1945 14.7605C35.8276 14.9533 35.3989 14.6418 35.469 14.2334L36.1513 10.2549C36.1792 10.0927 36.1254 9.92722 36.0075 9.81235L33.117 6.99479C32.8203 6.70552 32.984 6.20154 33.3941 6.14195L37.3887 5.5615C37.5516 5.53783 37.6924 5.43555 37.7652 5.28798L39.5516 1.66826Z" fill="url(#paint2_linear_1661_18107)"/>
<path d="M55.5516 1.66826C55.735 1.29663 56.265 1.29664 56.4484 1.66826L58.2348 5.28798C58.3076 5.43555 58.4484 5.53783 58.6113 5.5615L62.6059 6.14195C63.016 6.20154 63.1797 6.70552 62.883 6.99479L59.9925 9.81235C59.8746 9.92722 59.8208 10.0927 59.8487 10.2549L60.531 14.2334C60.6011 14.6418 60.1724 14.9533 59.8055 14.7605L56.2327 12.8821C56.087 12.8055 55.913 12.8055 55.7673 12.8821L52.1945 14.7605C51.8276 14.9533 51.3989 14.6418 51.469 14.2334L52.1513 10.2549C52.1792 10.0927 52.1254 9.92722 52.0075 9.81235L49.117 6.99479C48.8203 6.70552 48.984 6.20154 49.3941 6.14195L53.3887 5.5615C53.5516 5.53783 53.6924 5.43555 53.7652 5.28798L55.5516 1.66826Z" fill="url(#paint3_linear_1661_18107)"/>
<path d="M71.5516 1.66826C71.735 1.29663 72.265 1.29664 72.4484 1.66826L74.2348 5.28798C74.3076 5.43555 74.4484 5.53783 74.6113 5.5615L78.6059 6.14195C79.016 6.20154 79.1797 6.70552 78.883 6.99479L75.9925 9.81235C75.8746 9.92722 75.8208 10.0927 75.8487 10.2549L76.531 14.2334C76.6011 14.6418 76.1724 14.9533 75.8055 14.7605L72.2327 12.8821C72.087 12.8055 71.913 12.8055 71.7673 12.8821L68.1945 14.7605C67.8276 14.9533 67.3989 14.6418 67.469 14.2334L68.1513 10.2549C68.1792 10.0927 68.1254 9.92722 68.0075 9.81235L65.117 6.99479C64.8203 6.70552 64.984 6.20154 65.3941 6.14195L69.3887 5.5615C69.5516 5.53783 69.6924 5.43555 69.7652 5.28798L71.5516 1.66826Z" fill="url(#paint4_linear_1661_18107)"/>
<defs>
<linearGradient id="paint0_linear_1661_18107" x1="16.0763" y1="15.5976" x2="-0.901474" y2="14.4823" gradientUnits="userSpaceOnUse">
<stop stop-color="#FFB800"/>
<stop offset="1" stop-color="#FFF173"/>
</linearGradient>
<linearGradient id="paint1_linear_1661_18107" x1="32.0763" y1="15.5976" x2="15.0985" y2="14.4823" gradientUnits="userSpaceOnUse">
<stop stop-color="#FFB800"/>
<stop offset="1" stop-color="#FFF173"/>
</linearGradient>
<linearGradient id="paint2_linear_1661_18107" x1="48.0763" y1="15.5976" x2="31.0985" y2="14.4823" gradientUnits="userSpaceOnUse">
<stop stop-color="#FFB800"/>
<stop offset="1" stop-color="#FFF173"/>
</linearGradient>
<linearGradient id="paint3_linear_1661_18107" x1="64.0763" y1="15.5976" x2="47.0985" y2="14.4823" gradientUnits="userSpaceOnUse">
<stop stop-color="#FFB800"/>
<stop offset="1" stop-color="#FFF173"/>
</linearGradient>
<linearGradient id="paint4_linear_1661_18107" x1="80.0763" y1="15.5976" x2="63.0985" y2="14.4823" gradientUnits="userSpaceOnUse">
<stop stop-color="#FFB800"/>
<stop offset="1" stop-color="#FFF173"/>
</linearGradient>
</defs>
</svg>
