<svg width="40" height="40" viewBox="0 0 40 40" fill="none" xmlns="http://www.w3.org/2000/svg">
<g clip-path="url(#clip0_1643_59779)">
<path d="M20 0C8.95002 0 0 8.95002 0 20C0 31.0499 8.95002 39.9999 20 39.9999C31.0499 39.9999 40 31.05 40 20C40 8.94993 31.05 0 20 0ZM20 6C23.31 6 25.9999 8.68996 25.9999 12C25.9999 15.32 23.31 18 20 18C16.6899 18 14 15.32 14 12C14 8.68996 16.69 6 20 6ZM20 34.3999C14.99 34.3999 10.59 31.8399 7.99996 27.96C8.04993 23.9899 16.01 21.8 20 21.8C23.9899 21.8 31.9399 23.9899 31.9999 27.96C29.41 31.84 25.0099 34.3999 20 34.3999Z" fill="white" fill-opacity="0.2"/>
</g>
<defs>
<clipPath id="clip0_1643_59779">
<rect width="40" height="40" fill="white"/>
</clipPath>
</defs>
</svg>
