<svg width="21" height="21" viewBox="0 0 21 21" fill="none" xmlns="http://www.w3.org/2000/svg">
<path d="M11.3525 2.99902V7.07759C13.0843 6.96414 14.7373 6.26188 16.0565 5.07112C14.7317 3.80067 13.058 3.11154 11.3525 2.99902Z" fill="#7575A1"/>
<path d="M3.35645 10.0041H10.3613V8.06982C8.38199 7.95637 6.49085 7.16034 4.98881 5.80176C3.9987 7.0347 3.45489 8.50768 3.35645 10.0041ZM11.3523 10.9951V12.9294C13.3325 13.0438 15.2246 13.8389 16.7257 15.1984C17.7158 13.9645 18.2596 12.4925 18.3571 10.9951H11.3542H11.3523ZM4.98787 15.1975C6.49085 13.8379 8.38199 13.0438 10.3613 12.9294V10.9951H3.35645C3.45489 12.4925 3.9987 13.9645 4.98787 15.1975V15.1975Z" fill="#7575A1"/>
<path d="M10.3612 18V13.9214C8.62946 14.0339 6.97647 14.7371 5.6582 15.9279C6.9821 17.1974 8.65665 17.8874 10.3603 18H10.3612Z" fill="#7575A1"/>
<path d="M10.3612 7.07759V2.99902C8.65665 3.11154 6.9821 3.80161 5.6582 5.07112C6.97553 6.26188 8.6304 6.96321 10.3603 7.07759H10.3612ZM16.7257 5.80245C15.2236 7.16104 13.3315 7.95613 11.3532 8.06958V10.0038H18.3571C18.2596 8.50744 17.7148 7.03446 16.7257 5.80152V5.80245ZM11.3523 18.0007C13.0578 17.8881 14.7323 17.1981 16.0562 15.9286C14.7379 14.7378 13.084 14.0346 11.3523 13.9221V18.0007V18.0007Z" fill="#7575A1"/>
</svg>
