<svg width="20" height="21" viewBox="0 0 20 21" fill="none" xmlns="http://www.w3.org/2000/svg">
<path d="M9.67414 7.69439L8.84257 5.47533C8.83507 5.45471 8.82945 5.43314 8.82382 5.41064H5.73008L4.23008 7.80783C4.21414 7.83595 4.19539 7.8622 4.17289 7.88564L4.15039 7.9072L5.16289 10.9447C5.20601 10.9391 5.25008 10.9381 5.29414 10.9428L8.16289 11.2297C8.18351 11.2325 8.20507 11.2372 8.2257 11.2438L9.82789 7.9147C9.76039 7.85377 9.70882 7.77783 9.67507 7.69439H9.67414Z" fill="#7575A1"/>
<path d="M5.81375 4.87502H8.945C8.99843 4.81127 9.06406 4.75783 9.13906 4.72033L11.3394 3.62065V3.12377C10.8969 3.04221 10.4487 3.00002 9.99968 3.00002C8.44156 2.99627 6.92187 3.48283 5.65625 4.39127L5.80625 4.84314C5.81 4.85346 5.81 4.86471 5.81375 4.87502Z" fill="#7575A1"/>
<path d="M3.76027 7.54197C3.76496 7.53541 3.76965 7.52978 3.77621 7.52416L5.29496 5.09322L5.29965 5.08666C5.30996 5.07072 5.31277 5.04916 5.30621 5.03135L5.20777 4.73697C5.17965 4.76135 5.14871 4.78385 5.11965 4.80916C5.0709 4.85041 5.02308 4.89353 4.97527 4.93666C4.88902 5.01447 4.80465 5.09416 4.72215 5.17572C4.67808 5.21978 4.63402 5.26197 4.5909 5.30697C4.5009 5.40072 4.41277 5.49822 4.32746 5.5976C4.29933 5.63041 4.2684 5.66228 4.24027 5.69603C4.12871 5.82916 4.02277 5.96603 3.92152 6.10572C3.89715 6.13853 3.87652 6.17134 3.85308 6.20509C3.77621 6.31478 3.70215 6.42634 3.6309 6.53978L3.53902 6.69447C3.47996 6.79478 3.42371 6.89509 3.37027 6.99822L3.28309 7.16697C3.22965 7.27384 3.17996 7.38259 3.13309 7.49228C3.10965 7.54384 3.08621 7.59447 3.06559 7.64603L3.0459 7.69853L3.72559 7.56259C3.73965 7.56072 3.75184 7.55322 3.76027 7.54197V7.54197ZM10.1287 14.2498H13.5787L15.0599 11.576L13.4606 8.37728H13.4503C13.4315 8.37728 13.4128 8.37728 13.3949 8.3754L10.334 8.09697L8.65589 11.5817L10.0912 14.1645C10.1062 14.1926 10.1193 14.2207 10.1287 14.2498V14.2498ZM14.2753 4.73885C14.2884 4.74541 14.3006 4.75478 14.3137 4.76228L14.6746 4.64135C13.8515 3.98041 12.8971 3.50322 11.8753 3.24072V3.5501C11.9034 3.55947 11.9315 3.56885 11.9596 3.58103L14.2753 4.73885ZM9.34402 5.28728L10.1765 7.50541C10.1859 7.53072 10.2093 7.54853 10.2356 7.55041L13.4437 7.84197C13.4793 7.84572 13.5112 7.82228 13.5187 7.78759L14.0718 5.29572C14.0793 5.26385 14.0643 5.23197 14.0343 5.21791L11.7215 4.05916C11.7009 4.04978 11.6784 4.04978 11.6587 4.05916L9.38058 5.19916C9.34777 5.2151 9.3337 5.2526 9.34589 5.28541L9.34402 5.28728Z" fill="#7575A1"/>
<path d="M15.5915 11.7846C15.568 11.7864 15.5474 11.8005 15.5362 11.8221L15.524 11.8427L14.0146 14.5642C14.0052 14.5811 14.0052 14.6008 14.0099 14.6186L14.0184 14.6449L14.5387 16.4645L14.5855 16.4299L14.7084 16.3314C14.7646 16.2864 14.819 16.2414 14.8734 16.1955L14.9905 16.0924C15.044 16.0445 15.0965 15.9967 15.148 15.948L15.2605 15.8402C15.3112 15.7895 15.3609 15.7389 15.4105 15.6864L15.5155 15.5749C15.5643 15.5224 15.6121 15.468 15.659 15.4136L15.7574 15.2992C15.8043 15.243 15.8502 15.1858 15.8952 15.1277L15.9852 15.0124C16.0312 14.9524 16.0743 14.8905 16.1184 14.8286L16.199 14.7152C16.244 14.6477 16.288 14.5792 16.3302 14.5117C16.3527 14.477 16.3762 14.4433 16.3968 14.4086C16.4493 14.3233 16.499 14.2361 16.5477 14.1489L16.5805 14.0927C16.6387 13.9858 16.694 13.877 16.7474 13.7683C16.7624 13.7364 16.7755 13.7045 16.7915 13.6727C16.828 13.5949 16.8646 13.5161 16.8984 13.4364C16.9171 13.3933 16.934 13.3483 16.9518 13.3052C16.9799 13.2358 17.0071 13.1674 17.0324 13.0989C17.0512 13.0492 17.0671 12.9996 17.084 12.9508C17.1074 12.8852 17.1299 12.8196 17.1505 12.7521C17.1674 12.7014 17.1815 12.6489 17.1974 12.5974C17.2162 12.5317 17.2349 12.4661 17.2518 12.4005L17.2912 12.2402L17.3362 12.0433L17.368 11.8792L17.3849 11.7817H15.6177L15.5915 11.7846V11.7846Z" fill="#7575A1"/>
<path d="M4.63094 11.4782C4.64031 11.4004 4.66375 11.3245 4.70125 11.256L3.65688 8.12293L2.83938 8.28605C2.61438 9.00324 2.5 9.75042 2.5 10.5004C2.49906 11.691 2.78219 12.8648 3.32781 13.9232C3.38406 14.0357 3.44125 14.1407 3.505 14.2457L3.52844 14.2832L4.35344 13.972L4.63094 11.4782V11.4782ZM15.5369 5.4473C15.4337 5.33012 15.3325 5.22512 15.2237 5.12293C15.1975 5.09762 15.1694 5.07512 15.1431 5.0498L14.6059 5.2298C14.6115 5.29074 14.6078 5.35168 14.5947 5.41262L14.0416 7.90449C14.0228 7.98605 13.9862 8.06386 13.9356 8.12949L15.5003 11.2589C15.5097 11.2579 15.519 11.2532 15.5303 11.2523C15.5547 11.2476 15.579 11.2457 15.6034 11.2457H17.4306C17.44 11.2457 17.4484 11.2485 17.4578 11.2485C17.485 11.0001 17.499 10.7507 17.5 10.5004C17.5028 8.62918 16.8025 6.82543 15.5369 5.4473V5.4473ZM13.5016 14.7857H10.0703C10.0328 14.8476 9.98312 14.901 9.92499 14.9451L7.67781 16.6298C7.64968 16.6504 7.62062 16.6682 7.58968 16.6842V17.5992C7.6675 17.6264 7.74437 17.6545 7.82218 17.676C9.93718 18.321 12.2294 17.9948 14.0809 16.7854C14.0706 16.7629 14.0622 16.7395 14.0547 16.717L13.5016 14.7857ZM9.62312 14.4257L8.16249 11.7979C8.15125 11.7782 8.13062 11.7651 8.10718 11.7623L5.23844 11.4754H5.23187C5.19625 11.4754 5.16625 11.5026 5.1625 11.5373L4.88125 14.0695C4.87844 14.092 4.88687 14.1145 4.90469 14.1304L7.26718 16.1976C7.2925 16.2192 7.32906 16.221 7.35531 16.2014L9.60249 14.5157C9.63062 14.4951 9.63906 14.4567 9.62124 14.4257H9.62312Z" fill="#7575A1"/>
<path d="M4.55355 14.5332C4.53762 14.5182 4.52355 14.5022 4.51043 14.4854L3.82324 14.7441C4.62762 15.9141 5.74793 16.8319 7.05386 17.3897V16.6885C7.00418 16.665 6.95824 16.636 6.91605 16.6003L4.55355 14.5332V14.5332Z" fill="#7575A1"/>
</svg>
