<svg width="21" height="21" viewBox="0 0 21 21" fill="none" xmlns="http://www.w3.org/2000/svg">
<path d="M10.389 7.69439L9.55742 5.47533C9.54992 5.45471 9.54429 5.43314 9.53867 5.41064H6.44492L4.94492 7.80783C4.92898 7.83595 4.91023 7.8622 4.88773 7.88564L4.86523 7.9072L5.87773 10.9447C5.92086 10.9391 5.96492 10.9381 6.00898 10.9428L8.87773 11.2297C8.89836 11.2325 8.91992 11.2372 8.94054 11.2438L10.5427 7.9147C10.4752 7.85377 10.4237 7.77783 10.3899 7.69439H10.389Z" fill="#7575A1"/>
<path d="M6.52859 4.87502H9.65984C9.71328 4.81127 9.7789 4.75783 9.8539 4.72033L12.0542 3.62065V3.12377C11.6117 3.04221 11.1636 3.00002 10.7145 3.00002C9.1564 2.99627 7.63672 3.48283 6.37109 4.39127L6.52109 4.84314C6.52484 4.85346 6.52484 4.86471 6.52859 4.87502Z" fill="#7575A1"/>
<path d="M4.47512 7.54197C4.4798 7.53541 4.48449 7.52978 4.49105 7.52416L6.0098 5.09322L6.01449 5.08666C6.0248 5.07072 6.02761 5.04916 6.02105 5.03135L5.92261 4.73697C5.89449 4.76135 5.86355 4.78385 5.83449 4.80916C5.78574 4.85041 5.73793 4.89353 5.69012 4.93666C5.60387 5.01447 5.51949 5.09416 5.43699 5.17572C5.39293 5.21978 5.34887 5.26197 5.30574 5.30697C5.21574 5.40072 5.12762 5.49822 5.0423 5.5976C5.01418 5.63041 4.98324 5.66228 4.95512 5.69603C4.84355 5.82916 4.73762 5.96603 4.63637 6.10572C4.61199 6.13853 4.59137 6.17134 4.56793 6.20509C4.49105 6.31478 4.41699 6.42634 4.34574 6.53978L4.25387 6.69447C4.1948 6.79478 4.13855 6.89509 4.08512 6.99822L3.99793 7.16697C3.94449 7.27384 3.8948 7.38259 3.84793 7.49228C3.82449 7.54384 3.80105 7.59447 3.78043 7.64603L3.76074 7.69853L4.44043 7.56259C4.45449 7.56072 4.46668 7.55322 4.47512 7.54197V7.54197ZM10.8435 14.2498H14.2935L15.7748 11.576L14.1754 8.37728H14.1651C14.1464 8.37728 14.1276 8.37728 14.1098 8.3754L11.0489 8.09697L9.37074 11.5817L10.806 14.1645C10.821 14.1926 10.8342 14.2207 10.8435 14.2498V14.2498ZM14.9901 4.73885C15.0032 4.74541 15.0154 4.75478 15.0285 4.76228L15.3895 4.64135C14.5664 3.98041 13.612 3.50322 12.5901 3.24072V3.5501C12.6182 3.55947 12.6464 3.56885 12.6745 3.58103L14.9901 4.73885ZM10.0589 5.28728L10.8914 7.50541C10.9007 7.53072 10.9242 7.54853 10.9504 7.55041L14.1585 7.84197C14.1942 7.84572 14.226 7.82228 14.2335 7.78759L14.7867 5.29572C14.7942 5.26385 14.7792 5.23197 14.7492 5.21791L12.4364 4.05916C12.4157 4.04978 12.3932 4.04978 12.3735 4.05916L10.0954 5.19916C10.0626 5.2151 10.0485 5.2526 10.0607 5.28541L10.0589 5.28728Z" fill="#7575A1"/>
<path d="M16.3063 11.7846C16.2829 11.7864 16.2623 11.8005 16.251 11.8221L16.2388 11.8427L14.7294 14.5642C14.7201 14.5811 14.7201 14.6008 14.7248 14.6186L14.7332 14.6449L15.2535 16.4645L15.3004 16.4299L15.4232 16.3314C15.4794 16.2864 15.5338 16.2414 15.5882 16.1955L15.7054 16.0924C15.7588 16.0445 15.8113 15.9967 15.8629 15.948L15.9754 15.8402C16.026 15.7895 16.0757 15.7389 16.1254 15.6864L16.2304 15.5749C16.2791 15.5224 16.3269 15.468 16.3738 15.4136L16.4723 15.2992C16.5191 15.243 16.5651 15.1858 16.6101 15.1277L16.7001 15.0124C16.746 14.9524 16.7891 14.8905 16.8332 14.8286L16.9138 14.7152C16.9588 14.6477 17.0029 14.5792 17.0451 14.5117C17.0676 14.477 17.091 14.4433 17.1116 14.4086C17.1641 14.3233 17.2138 14.2361 17.2626 14.1489L17.2954 14.0927C17.3535 13.9858 17.4088 13.877 17.4623 13.7683C17.4773 13.7364 17.4904 13.7045 17.5063 13.6727C17.5429 13.5949 17.5794 13.5161 17.6132 13.4364C17.6319 13.3933 17.6488 13.3483 17.6666 13.3052C17.6948 13.2358 17.7219 13.1674 17.7473 13.0989C17.766 13.0492 17.7819 12.9996 17.7988 12.9508C17.8223 12.8852 17.8448 12.8196 17.8654 12.7521C17.8823 12.7014 17.8963 12.6489 17.9123 12.5974C17.931 12.5317 17.9498 12.4661 17.9666 12.4005L18.006 12.2402L18.051 12.0433L18.0829 11.8792L18.0998 11.7817H16.3326L16.3063 11.7846V11.7846Z" fill="#7575A1"/>
<path d="M5.34578 11.4782C5.35516 11.4004 5.37859 11.3245 5.41609 11.256L4.37172 8.12293L3.55422 8.28605C3.32922 9.00324 3.21485 9.75042 3.21485 10.5004C3.21391 11.691 3.49703 12.8648 4.04266 13.9232C4.09891 14.0357 4.15609 14.1407 4.21984 14.2457L4.24328 14.2832L5.06828 13.972L5.34578 11.4782V11.4782ZM16.2517 5.4473C16.1486 5.33012 16.0473 5.22512 15.9386 5.12293C15.9123 5.09762 15.8842 5.07512 15.858 5.0498L15.3208 5.2298C15.3264 5.29074 15.3226 5.35168 15.3095 5.41262L14.7564 7.90449C14.7376 7.98605 14.7011 8.06386 14.6505 8.12949L16.2151 11.2589C16.2245 11.2579 16.2339 11.2532 16.2451 11.2523C16.2695 11.2476 16.2939 11.2457 16.3183 11.2457H18.1455C18.1548 11.2457 18.1633 11.2485 18.1726 11.2485C18.1998 11.0001 18.2139 10.7507 18.2148 10.5004C18.2176 8.62918 17.5173 6.82543 16.2517 5.4473V5.4473ZM14.2164 14.7857H10.7851C10.7476 14.8476 10.698 14.901 10.6398 14.9451L8.39265 16.6298C8.36453 16.6504 8.33546 16.6682 8.30453 16.6842V17.5992C8.38234 17.6264 8.45921 17.6545 8.53703 17.676C10.652 18.321 12.9442 17.9948 14.7958 16.7854C14.7855 16.7629 14.777 16.7395 14.7695 16.717L14.2164 14.7857ZM10.338 14.4257L8.87734 11.7979C8.86609 11.7782 8.84546 11.7651 8.82203 11.7623L5.95328 11.4754H5.94672C5.91109 11.4754 5.88109 11.5026 5.87734 11.5373L5.59609 14.0695C5.59328 14.092 5.60172 14.1145 5.61953 14.1304L7.98203 16.1976C8.00734 16.2192 8.0439 16.221 8.07015 16.2014L10.3173 14.5157C10.3455 14.4951 10.3539 14.4567 10.3361 14.4257H10.338Z" fill="#7575A1"/>
<path d="M5.2684 14.5332C5.25246 14.5182 5.2384 14.5022 5.22527 14.4854L4.53809 14.7441C5.34246 15.9141 6.46277 16.8319 7.76871 17.3897V16.6885C7.71902 16.665 7.67308 16.636 7.63089 16.6003L5.2684 14.5332V14.5332Z" fill="#7575A1"/>
</svg>
