<svg width="20" height="21" viewBox="0 0 20 21" fill="none" xmlns="http://www.w3.org/2000/svg">
<path d="M15.1891 5.4881C13.7959 4.79001 11.9528 4.40625 10 4.40625C8.04719 4.40625 6.20406 4.79095 4.81094 5.48904C3.32031 6.23311 2.5 7.26054 2.5 8.37899C2.5 9.49743 3.32031 10.5249 4.81094 11.2708C6.20406 11.9689 8.04719 12.3527 10 12.3527C11.9528 12.3527 13.7959 11.968 15.1891 11.2717C16.6797 10.5258 17.5 9.49837 17.5 8.37899C17.5 7.2596 16.6797 6.23217 15.1891 5.48716V5.4881Z" fill="#7575A1"/>
<path d="M15.5819 12.0581C14.0688 12.8154 12.0869 13.232 10 13.232C7.91312 13.232 5.93125 12.8154 4.41813 12.0591C3.61375 11.6547 2.96875 11.1724 2.5 10.6226V12.6202C2.5 13.7396 3.32031 14.767 4.81094 15.512C6.20406 16.2092 8.04719 16.5939 10 16.5939C11.9528 16.5939 13.7959 16.2092 15.1891 15.512C16.6797 14.7661 17.5 13.7386 17.5 12.6202V10.6235C17.0312 11.1743 16.3863 11.6556 15.5819 12.0591V12.0581Z" fill="#7575A1"/>
</svg>
