<svg width="21" height="21" viewBox="0 0 21 21" fill="none" xmlns="http://www.w3.org/2000/svg">
<path d="M9.43943 3.02832C7.76233 3.18514 6.12467 3.90819 4.83633 5.19465C3.54986 6.48112 2.82681 8.11784 2.67188 9.7987C4.51424 10.0128 6.47305 10.9537 8.08066 12.5622C9.69015 14.1717 10.6329 16.1315 10.8452 17.9729C12.5279 17.817 14.1618 17.0949 15.4501 15.8094C16.7366 14.5229 17.4578 12.8843 17.6137 11.2044C15.775 10.9913 13.8134 10.0494 12.2049 8.44087C10.5973 6.83231 9.65447 4.87163 9.43943 3.02926V3.02832Z" fill="#7575A1"/>
<path d="M17.6436 10.2737C17.5891 8.42851 16.8585 6.60116 15.4528 5.19356C14.0452 3.78409 12.215 3.05634 10.3699 3C10.5774 4.61137 11.4328 6.34293 12.8677 7.77776C14.3016 9.21166 16.0312 10.0662 17.6436 10.2737ZM2.64355 10.7282C2.69802 12.5724 3.42858 14.4007 4.83618 15.8083C6.24284 17.215 8.07112 17.9465 9.91631 18C9.70879 16.3905 8.85333 14.6608 7.4185 13.226C5.98649 11.7921 4.25398 10.9376 2.64355 10.7282Z" fill="#7575A1"/>
</svg>
