<svg width="21" height="21" viewBox="0 0 21 21" fill="none" xmlns="http://www.w3.org/2000/svg">
<path d="M9.58201 3.02832C7.90491 3.18514 6.26725 3.90819 4.97891 5.19465C3.69244 6.48112 2.96939 8.11784 2.81445 9.7987C4.65682 10.0128 6.61563 10.9537 8.22324 12.5622C9.83273 14.1717 10.7755 16.1315 10.9877 17.9729C12.6705 17.817 14.3044 17.0949 15.5927 15.8094C16.8792 14.5229 17.6004 12.8843 17.7562 11.2044C15.9176 10.9913 13.956 10.0494 12.3474 8.44087C10.7398 6.83231 9.79705 4.87163 9.58201 3.02926V3.02832Z" fill="#7575A1"/>
<path d="M17.7861 10.2737C17.7317 8.42851 17.0011 6.60116 15.5954 5.19356C14.1878 3.78409 12.3576 3.05634 10.5124 3C10.72 4.61137 11.5754 6.34293 13.0102 7.77776C14.4441 9.21166 16.1738 10.0662 17.7861 10.2737ZM2.78613 10.7282C2.8406 12.5724 3.57116 14.4007 4.97876 15.8083C6.38542 17.215 8.2137 17.9465 10.0589 18C9.85136 16.3905 8.99591 14.6608 7.56108 13.226C6.12907 11.7921 4.39656 10.9376 2.78613 10.7282Z" fill="#7575A1"/>
</svg>
