<svg width="21" height="21" viewBox="0 0 21 21" fill="none" xmlns="http://www.w3.org/2000/svg">
<path d="M6.8018 3.92676C5.9646 4.38895 5.22489 5.0049 4.62207 5.73992C7.21712 6.21711 9.77936 7.58308 10.7422 9.99625C11.4303 9.92687 12.0425 9.75718 12.5778 9.5003C12.1391 6.52368 9.69686 4.27364 6.80274 3.92676H6.8018Z" fill="#7575A1"/>
<path d="M10.4579 3C9.68909 3 8.94845 3.11719 8.25 3.33376C11.0129 4.18221 12.872 6.42944 13.3829 9.02168C14.6551 8.1001 15.4295 6.69195 15.8955 5.36255C14.5304 3.91221 12.6001 3 10.4569 3H10.4579Z" fill="#7575A1"/>
<path d="M16.5503 6.16064C15.4253 8.98257 13.4059 10.6495 10.7471 10.8839C10.2633 11.8354 10.0252 12.742 10.0205 13.582C13.6356 13.7939 16.6319 11.4267 17.5966 8.26631C17.3613 7.50411 17.0022 6.79722 16.5503 6.16064V6.16064Z" fill="#7575A1"/>
<path d="M17.8981 9.8667C16.474 12.6511 13.5612 14.6199 10.082 14.4643C10.2648 15.7553 10.8583 16.9497 11.7564 17.8797C15.2571 17.2628 17.9291 14.1474 17.9291 10.4723C17.9291 10.268 17.915 10.0673 17.8981 9.86764V9.8667Z" fill="#7575A1"/>
<path d="M9.13952 13.6063C9.13952 12.5966 9.40765 11.5447 9.98047 10.4347C9.73484 9.76717 9.34671 9.19435 8.86482 8.70215C6.10852 10.8613 5.6857 14.8916 7.91699 17.557C8.70357 17.8383 9.5764 18.0005 10.4577 18.0005C10.5345 18.0005 10.6086 17.9911 10.6845 17.9892C9.70484 16.7601 9.13952 15.2217 9.13952 13.6063V13.6063Z" fill="#7575A1"/>
<path d="M8.19944 8.11743C7.06598 7.26429 5.5397 6.75241 4.05748 6.54053C3.34684 7.6843 2.92871 9.02776 2.92871 10.4706C2.92871 13.0891 4.28624 15.4526 6.3319 16.7867C4.84781 13.8663 5.61189 10.2418 8.19944 8.11743Z" fill="#7575A1"/>
</svg>
