<svg width="28" height="28" viewBox="0 0 28 28" fill="none" xmlns="http://www.w3.org/2000/svg">
<path d="M19.86 13.93C19.85 12.08 20.687 10.684 22.38 9.655C21.433 8.3 20.001 7.554 18.111 7.408C16.322 7.267 14.367 8.451 13.651 8.451C12.895 8.451 11.161 7.458 9.801 7.458C6.989 7.503 4 9.701 4 14.171C4 15.491 4.242 16.857 4.726 18.263C5.371 20.113 7.699 24.649 10.128 24.573C11.398 24.543 12.295 23.671 13.948 23.671C15.551 23.671 16.383 24.573 17.798 24.573C20.248 24.538 22.355 20.415 22.97 18.561C19.684 17.014 19.86 14.025 19.86 13.929V13.93ZM17.008 5.654C18.384 4.02 18.258 2.534 18.218 2C17.003 2.07 15.597 2.827 14.795 3.759C13.913 4.757 13.395 5.992 13.505 7.382C14.82 7.483 16.02 6.808 17.008 5.654Z" fill="white"/>
</svg>
